<svg id="visual" viewBox="0 0 450 900" width="450" height="900" xmlns="http://www.w3.org/2000/svg" xmlns:xlink="http://www.w3.org/1999/xlink" version="1.1"><rect x="0" y="0" width="450" height="900" fill="#FFFFFF"></rect><defs><linearGradient id="grad1_0" x1="0%" y1="0%" x2="100%" y2="100%"><stop offset="30%" stop-color="#ff0066" stop-opacity="1"></stop><stop offset="70%" stop-color="#ff0066" stop-opacity="1"></stop></linearGradient></defs><defs><linearGradient id="grad1_1" x1="0%" y1="0%" x2="100%" y2="100%"><stop offset="30%" stop-color="#ff0066" stop-opacity="1"></stop><stop offset="70%" stop-color="#ff7d96" stop-opacity="1"></stop></linearGradient></defs><defs><linearGradient id="grad1_2" x1="0%" y1="0%" x2="100%" y2="100%"><stop offset="30%" stop-color="#ffc0c9" stop-opacity="1"></stop><stop offset="70%" stop-color="#ff7d96" stop-opacity="1"></stop></linearGradient></defs><defs><linearGradient id="grad1_3" x1="0%" y1="0%" x2="100%" y2="100%"><stop offset="30%" stop-color="#ffc0c9" stop-opacity="1"></stop><stop offset="70%" stop-color="#ffffff" stop-opacity="1"></stop></linearGradient></defs><defs><linearGradient id="grad2_0" x1="0%" y1="0%" x2="100%" y2="100%"><stop offset="30%" stop-color="#ff0066" stop-opacity="1"></stop><stop offset="70%" stop-color="#ff0066" stop-opacity="1"></stop></linearGradient></defs><defs><linearGradient id="grad2_1" x1="0%" y1="0%" x2="100%" y2="100%"><stop offset="30%" stop-color="#ff7d96" stop-opacity="1"></stop><stop offset="70%" stop-color="#ff0066" stop-opacity="1"></stop></linearGradient></defs><defs><linearGradient id="grad2_2" x1="0%" y1="0%" x2="100%" y2="100%"><stop offset="30%" stop-color="#ff7d96" stop-opacity="1"></stop><stop offset="70%" stop-color="#ffc0c9" stop-opacity="1"></stop></linearGradient></defs><defs><linearGradient id="grad2_3" x1="0%" y1="0%" x2="100%" y2="100%"><stop offset="30%" stop-color="#ffffff" stop-opacity="1"></stop><stop offset="70%" stop-color="#ffc0c9" stop-opacity="1"></stop></linearGradient></defs><g transform="translate(450, 0)"><path d="M0 270C-42.6 255.3 -85.1 240.6 -127 220C-168.9 199.3 -210.1 172.7 -233.8 135C-257.5 97.3 -263.8 48.7 -270 0L0 0Z" fill="#ffe0e4"></path><path d="M0 202.5C-31.9 191.5 -63.8 180.5 -95.2 165C-126.7 149.5 -157.6 129.5 -175.4 101.3C-193.2 73 -197.8 36.5 -202.5 0L0 0Z" fill="#ffa0af"></path><path d="M0 135C-21.3 127.7 -42.6 120.3 -63.5 110C-84.4 99.7 -105.1 86.3 -116.9 67.5C-128.8 48.7 -131.9 24.3 -135 0L0 0Z" fill="#ff547d"></path><path d="M0 67.5C-10.6 63.8 -21.3 60.2 -31.7 55C-42.2 49.8 -52.5 43.2 -58.5 33.8C-64.4 24.3 -65.9 12.2 -67.5 0L0 0Z" fill="#ff0066"></path></g><g transform="translate(0, 900)"><path d="M0 -270C46.6 -262.2 93.1 -254.5 134.5 -233C175.9 -211.4 212.1 -176.1 233.8 -135C255.5 -93.9 262.8 -46.9 270 0L0 0Z" fill="#ffe0e4"></path><path d="M0 -202.5C34.9 -196.7 69.8 -190.9 100.9 -174.7C131.9 -158.6 159.1 -132.1 175.4 -101.3C191.7 -70.4 197.1 -35.2 202.5 0L0 0Z" fill="#ffa0af"></path><path d="M0 -135C23.3 -131.1 46.6 -127.2 67.2 -116.5C87.9 -105.7 106.1 -88.1 116.9 -67.5C127.8 -46.9 131.4 -23.5 135 0L0 0Z" fill="#ff547d"></path><path d="M0 -67.5C11.6 -65.6 23.3 -63.6 33.6 -58.2C44 -52.9 53 -44 58.5 -33.8C63.9 -23.5 65.7 -11.7 67.5 0L0 0Z" fill="#ff0066"></path></g></svg>