<svg id="visual" viewBox="0 0 675 900" width="675" height="900" xmlns="http://www.w3.org/2000/svg" xmlns:xlink="http://www.w3.org/1999/xlink" version="1.1"><rect x="0" y="0" width="675" height="900" fill="#FFFFFF"></rect><defs><linearGradient id="grad1_0" x1="0%" y1="0%" x2="100%" y2="100%"><stop offset="30%" stop-color="#ff0066" stop-opacity="1"></stop><stop offset="70%" stop-color="#ff0066" stop-opacity="1"></stop></linearGradient></defs><defs><linearGradient id="grad1_1" x1="0%" y1="0%" x2="100%" y2="100%"><stop offset="30%" stop-color="#ff0066" stop-opacity="1"></stop><stop offset="70%" stop-color="#ffa0af" stop-opacity="1"></stop></linearGradient></defs><defs><linearGradient id="grad1_2" x1="0%" y1="0%" x2="100%" y2="100%"><stop offset="30%" stop-color="#ffffff" stop-opacity="1"></stop><stop offset="70%" stop-color="#ffa0af" stop-opacity="1"></stop></linearGradient></defs><defs><linearGradient id="grad2_0" x1="0%" y1="0%" x2="100%" y2="100%"><stop offset="30%" stop-color="#ff0066" stop-opacity="1"></stop><stop offset="70%" stop-color="#ff0066" stop-opacity="1"></stop></linearGradient></defs><defs><linearGradient id="grad2_1" x1="0%" y1="0%" x2="100%" y2="100%"><stop offset="30%" stop-color="#ffa0af" stop-opacity="1"></stop><stop offset="70%" stop-color="#ff0066" stop-opacity="1"></stop></linearGradient></defs><defs><linearGradient id="grad2_2" x1="0%" y1="0%" x2="100%" y2="100%"><stop offset="30%" stop-color="#ffa0af" stop-opacity="1"></stop><stop offset="70%" stop-color="#ffffff" stop-opacity="1"></stop></linearGradient></defs><g transform="translate(675, 0)"><path d="M0 281.3C-40.4 259.2 -80.9 237.2 -125 216.5C-169.1 195.8 -216.9 176.5 -243.6 140.6C-270.2 104.8 -275.7 52.4 -281.2 0L0 0Z" fill="#ffd0d6"></path><path d="M0 187.5C-27 172.8 -53.9 158.1 -83.3 144.3C-112.7 130.5 -144.6 117.7 -162.4 93.8C-180.1 69.8 -183.8 34.9 -187.5 0L0 0Z" fill="#ff6a89"></path><path d="M0 93.8C-13.5 86.4 -27 79.1 -41.7 72.2C-56.4 65.3 -72.3 58.8 -81.2 46.9C-90.1 34.9 -91.9 17.5 -93.7 0L0 0Z" fill="#ff0066"></path></g><g transform="translate(0, 900)"><path d="M0 -281.2C41.2 -260.6 82.5 -240 126.5 -219.1C170.5 -198.2 217.3 -177.2 243.6 -140.6C269.8 -104.1 275.5 -52 281.3 0L0 0Z" fill="#ffd0d6"></path><path d="M0 -187.5C27.5 -173.7 55 -160 84.3 -146.1C113.7 -132.2 144.9 -118.1 162.4 -93.8C179.9 -69.4 183.7 -34.7 187.5 0L0 0Z" fill="#ff6a89"></path><path d="M0 -93.7C13.7 -86.9 27.5 -80 42.2 -73C56.8 -66.1 72.4 -59.1 81.2 -46.9C89.9 -34.7 91.8 -17.3 93.8 0L0 0Z" fill="#ff0066"></path></g></svg>