<svg id="visual" viewBox="0 0 960 540" width="960" height="540" xmlns="http://www.w3.org/2000/svg" xmlns:xlink="http://www.w3.org/1999/xlink" version="1.1"><rect x="0" y="0" width="960" height="540" fill="#FFFFFF"></rect><defs><linearGradient id="grad1_0" x1="43.8%" y1="0%" x2="100%" y2="100%"><stop offset="14.444444444444446%" stop-color="#ff0066" stop-opacity="1"></stop><stop offset="85.55555555555554%" stop-color="#ff0066" stop-opacity="1"></stop></linearGradient></defs><defs><linearGradient id="grad1_1" x1="43.8%" y1="0%" x2="100%" y2="100%"><stop offset="14.444444444444446%" stop-color="#ff0066" stop-opacity="1"></stop><stop offset="85.55555555555554%" stop-color="#ffa0af" stop-opacity="1"></stop></linearGradient></defs><defs><linearGradient id="grad1_2" x1="43.8%" y1="0%" x2="100%" y2="100%"><stop offset="14.444444444444446%" stop-color="#ffffff" stop-opacity="1"></stop><stop offset="85.55555555555554%" stop-color="#ffa0af" stop-opacity="1"></stop></linearGradient></defs><defs><linearGradient id="grad2_0" x1="0%" y1="0%" x2="56.3%" y2="100%"><stop offset="14.444444444444446%" stop-color="#ff0066" stop-opacity="1"></stop><stop offset="85.55555555555554%" stop-color="#ff0066" stop-opacity="1"></stop></linearGradient></defs><defs><linearGradient id="grad2_1" x1="0%" y1="0%" x2="56.3%" y2="100%"><stop offset="14.444444444444446%" stop-color="#ffa0af" stop-opacity="1"></stop><stop offset="85.55555555555554%" stop-color="#ff0066" stop-opacity="1"></stop></linearGradient></defs><defs><linearGradient id="grad2_2" x1="0%" y1="0%" x2="56.3%" y2="100%"><stop offset="14.444444444444446%" stop-color="#ffa0af" stop-opacity="1"></stop><stop offset="85.55555555555554%" stop-color="#ffffff" stop-opacity="1"></stop></linearGradient></defs><g transform="translate(960, 0)"><path d="M0 270C-41 252.5 -81.9 235.1 -124 214.8C-166.1 194.5 -209.3 171.3 -233.8 135C-258.3 98.7 -264.2 49.4 -270 0L0 0Z" fill="#ffd0d6"></path><path d="M0 180C-27.3 168.4 -54.6 156.7 -82.7 143.2C-110.7 129.6 -139.5 114.2 -155.9 90C-172.2 65.8 -176.1 32.9 -180 0L0 0Z" fill="#ff6a89"></path><path d="M0 90C-13.7 84.2 -27.3 78.4 -41.3 71.6C-55.4 64.8 -69.8 57.1 -77.9 45C-86.1 32.9 -88.1 16.5 -90 0L0 0Z" fill="#ff0066"></path></g><g transform="translate(0, 540)"><path d="M0 -270C41.2 -253 82.4 -236 124.5 -215.6C166.6 -195.3 209.4 -171.5 233.8 -135C258.2 -98.5 264.1 -49.2 270 0L0 0Z" fill="#ffd0d6"></path><path d="M0 -180C27.5 -168.7 55 -157.3 83 -143.8C111 -130.2 139.6 -114.3 155.9 -90C172.1 -65.7 176.1 -32.8 180 0L0 0Z" fill="#ff6a89"></path><path d="M0 -90C13.7 -84.3 27.5 -78.7 41.5 -71.9C55.5 -65.1 69.8 -57.2 77.9 -45C86.1 -32.8 88 -16.4 90 0L0 0Z" fill="#ff0066"></path></g></svg>