<svg id="visual" viewBox="0 0 540 960" width="540" height="960" xmlns="http://www.w3.org/2000/svg" xmlns:xlink="http://www.w3.org/1999/xlink" version="1.1"><rect x="0" y="0" width="540" height="960" fill="#FFFFFF"></rect><defs><linearGradient id="grad1_0" x1="0%" y1="0%" x2="100%" y2="100%"><stop offset="30%" stop-color="#ff0066" stop-opacity="1"></stop><stop offset="70%" stop-color="#ff0066" stop-opacity="1"></stop></linearGradient></defs><defs><linearGradient id="grad1_1" x1="0%" y1="0%" x2="100%" y2="100%"><stop offset="30%" stop-color="#ff0066" stop-opacity="1"></stop><stop offset="70%" stop-color="#ff7d96" stop-opacity="1"></stop></linearGradient></defs><defs><linearGradient id="grad1_2" x1="0%" y1="0%" x2="100%" y2="100%"><stop offset="30%" stop-color="#ffc0c9" stop-opacity="1"></stop><stop offset="70%" stop-color="#ff7d96" stop-opacity="1"></stop></linearGradient></defs><defs><linearGradient id="grad1_3" x1="0%" y1="0%" x2="100%" y2="100%"><stop offset="30%" stop-color="#ffc0c9" stop-opacity="1"></stop><stop offset="70%" stop-color="#ffffff" stop-opacity="1"></stop></linearGradient></defs><defs><linearGradient id="grad2_0" x1="0%" y1="0%" x2="100%" y2="100%"><stop offset="30%" stop-color="#ff0066" stop-opacity="1"></stop><stop offset="70%" stop-color="#ff0066" stop-opacity="1"></stop></linearGradient></defs><defs><linearGradient id="grad2_1" x1="0%" y1="0%" x2="100%" y2="100%"><stop offset="30%" stop-color="#ff7d96" stop-opacity="1"></stop><stop offset="70%" stop-color="#ff0066" stop-opacity="1"></stop></linearGradient></defs><defs><linearGradient id="grad2_2" x1="0%" y1="0%" x2="100%" y2="100%"><stop offset="30%" stop-color="#ff7d96" stop-opacity="1"></stop><stop offset="70%" stop-color="#ffc0c9" stop-opacity="1"></stop></linearGradient></defs><defs><linearGradient id="grad2_3" x1="0%" y1="0%" x2="100%" y2="100%"><stop offset="30%" stop-color="#ffffff" stop-opacity="1"></stop><stop offset="70%" stop-color="#ffc0c9" stop-opacity="1"></stop></linearGradient></defs><g transform="translate(540, 0)"><path d="M0 324C-34.6 301.1 -69.3 278.3 -110.2 266.1C-151.1 253.9 -198.3 252.4 -229.1 229.1C-259.9 205.8 -274.2 160.8 -287.3 119C-300.4 77.2 -312.2 38.6 -324 0L0 0Z" fill="#ffe0e4"></path><path d="M0 243C-26 225.9 -52 208.7 -82.7 199.6C-113.3 190.4 -148.7 189.3 -171.8 171.8C-194.9 154.4 -205.7 120.6 -215.5 89.3C-225.3 57.9 -234.2 29 -243 0L0 0Z" fill="#ffa0af"></path><path d="M0 162C-17.3 150.6 -34.6 139.1 -55.1 133C-75.6 126.9 -99.2 126.2 -114.6 114.6C-129.9 102.9 -137.1 80.4 -143.7 59.5C-150.2 38.6 -156.1 19.3 -162 0L0 0Z" fill="#ff547d"></path><path d="M0 81C-8.7 75.3 -17.3 69.6 -27.6 66.5C-37.8 63.5 -49.6 63.1 -57.3 57.3C-65 51.5 -68.6 40.2 -71.8 29.8C-75.1 19.3 -78.1 9.7 -81 0L0 0Z" fill="#ff0066"></path></g><g transform="translate(0, 960)"><path d="M0 -324C36.3 -305.5 72.7 -287 113.7 -274.4C154.7 -261.7 200.3 -254.9 229.1 -229.1C257.9 -203.3 269.7 -158.5 282.7 -117.1C295.7 -75.7 309.9 -37.9 324 0L0 0Z" fill="#ffe0e4"></path><path d="M0 -243C27.2 -229.1 54.5 -215.3 85.2 -205.8C116 -196.3 150.3 -191.2 171.8 -171.8C193.4 -152.5 202.3 -118.8 212 -87.8C221.8 -56.8 232.4 -28.4 243 0L0 0Z" fill="#ffa0af"></path><path d="M0 -162C18.2 -152.8 36.3 -143.5 56.8 -137.2C77.3 -130.9 100.2 -127.5 114.6 -114.6C128.9 -101.6 134.9 -79.2 141.4 -58.6C147.9 -37.9 154.9 -18.9 162 0L0 0Z" fill="#ff547d"></path><path d="M0 -81C9.1 -76.4 18.2 -71.8 28.4 -68.6C38.7 -65.4 50.1 -63.7 57.3 -57.3C64.5 -50.8 67.4 -39.6 70.7 -29.3C73.9 -18.9 77.5 -9.5 81 0L0 0Z" fill="#ff0066"></path></g></svg>