<svg id="visual" viewBox="0 0 900 600" width="900" height="600" xmlns="http://www.w3.org/2000/svg" xmlns:xlink="http://www.w3.org/1999/xlink" version="1.1"><rect x="0" y="0" width="900" height="600" fill="#FFFFFF"></rect><defs><linearGradient id="grad1_0" x1="33.3%" y1="0%" x2="100%" y2="100%"><stop offset="20%" stop-color="#ff0066" stop-opacity="1"></stop><stop offset="80%" stop-color="#ff0066" stop-opacity="1"></stop></linearGradient></defs><defs><linearGradient id="grad1_1" x1="33.3%" y1="0%" x2="100%" y2="100%"><stop offset="20%" stop-color="#ff0066" stop-opacity="1"></stop><stop offset="80%" stop-color="#ff7d96" stop-opacity="1"></stop></linearGradient></defs><defs><linearGradient id="grad1_2" x1="33.3%" y1="0%" x2="100%" y2="100%"><stop offset="20%" stop-color="#ffc0c9" stop-opacity="1"></stop><stop offset="80%" stop-color="#ff7d96" stop-opacity="1"></stop></linearGradient></defs><defs><linearGradient id="grad1_3" x1="33.3%" y1="0%" x2="100%" y2="100%"><stop offset="20%" stop-color="#ffc0c9" stop-opacity="1"></stop><stop offset="80%" stop-color="#ffffff" stop-opacity="1"></stop></linearGradient></defs><defs><linearGradient id="grad2_0" x1="0%" y1="0%" x2="66.7%" y2="100%"><stop offset="20%" stop-color="#ff0066" stop-opacity="1"></stop><stop offset="80%" stop-color="#ff0066" stop-opacity="1"></stop></linearGradient></defs><defs><linearGradient id="grad2_1" x1="0%" y1="0%" x2="66.7%" y2="100%"><stop offset="20%" stop-color="#ff7d96" stop-opacity="1"></stop><stop offset="80%" stop-color="#ff0066" stop-opacity="1"></stop></linearGradient></defs><defs><linearGradient id="grad2_2" x1="0%" y1="0%" x2="66.7%" y2="100%"><stop offset="20%" stop-color="#ff7d96" stop-opacity="1"></stop><stop offset="80%" stop-color="#ffc0c9" stop-opacity="1"></stop></linearGradient></defs><defs><linearGradient id="grad2_3" x1="0%" y1="0%" x2="66.7%" y2="100%"><stop offset="20%" stop-color="#ffffff" stop-opacity="1"></stop><stop offset="80%" stop-color="#ffc0c9" stop-opacity="1"></stop></linearGradient></defs><g transform="translate(900, 0)"><path d="M0 405.6C-45.6 406.7 -91.1 407.7 -125.3 385.8C-159.6 363.9 -182.5 319 -207.5 285.6C-232.5 252.2 -259.4 230.3 -279.1 202.8C-298.8 175.3 -311.1 142.3 -331 107.5C-350.8 72.8 -378.2 36.4 -405.6 0L0 0Z" fill="#ffe0e4"></path><path d="M0 304.2C-34.2 305 -68.3 305.8 -94 289.3C-119.7 272.9 -136.9 239.2 -155.6 214.2C-174.3 189.1 -194.6 172.7 -209.3 152.1C-224.1 131.5 -233.3 106.7 -248.2 80.7C-263.1 54.6 -283.7 27.3 -304.2 0L0 0Z" fill="#ffa0af"></path><path d="M0 202.8C-22.8 203.3 -45.6 203.8 -62.7 192.9C-79.8 181.9 -91.3 159.5 -103.7 142.8C-116.2 126.1 -129.7 115.1 -139.6 101.4C-149.4 87.7 -155.6 71.1 -165.5 53.8C-175.4 36.4 -189.1 18.2 -202.8 0L0 0Z" fill="#ff547d"></path><path d="M0 101.4C-11.4 101.7 -22.8 101.9 -31.3 96.4C-39.9 91 -45.6 79.7 -51.9 71.4C-58.1 63 -64.9 57.6 -69.8 50.7C-74.7 43.8 -77.8 35.6 -82.7 26.9C-87.7 18.2 -94.6 9.1 -101.4 0L0 0Z" fill="#ff0066"></path></g><g transform="translate(0, 600)"><path d="M0 -405.6C44.5 -404.4 89.1 -403.2 125.3 -385.8C161.6 -368.4 189.7 -334.9 224.5 -309C259.4 -283.2 301.1 -265.1 320.4 -232.8C339.7 -200.4 336.7 -153.9 347.1 -112.8C357.6 -71.6 381.6 -35.8 405.6 0L0 0Z" fill="#ffe0e4"></path><path d="M0 -304.2C33.4 -303.3 66.8 -302.4 94 -289.3C121.2 -276.3 142.3 -251.2 168.4 -231.8C194.5 -212.4 225.8 -198.8 240.3 -174.6C254.8 -150.3 252.5 -115.5 260.4 -84.6C268.2 -53.7 286.2 -26.9 304.2 0L0 0Z" fill="#ffa0af"></path><path d="M0 -202.8C22.3 -202.2 44.5 -201.6 62.7 -192.9C80.8 -184.2 94.8 -167.4 112.3 -154.5C129.7 -141.6 150.5 -132.5 160.2 -116.4C169.8 -100.2 168.3 -77 173.6 -56.4C178.8 -35.8 190.8 -17.9 202.8 0L0 0Z" fill="#ff547d"></path><path d="M0 -101.4C11.1 -101.1 22.3 -100.8 31.3 -96.4C40.4 -92.1 47.4 -83.7 56.1 -77.3C64.8 -70.8 75.3 -66.3 80.1 -58.2C84.9 -50.1 84.2 -38.5 86.8 -28.2C89.4 -17.9 95.4 -9 101.4 0L0 0Z" fill="#ff0066"></path></g></svg>