<svg id="visual" viewBox="0 0 540 960" width="540" height="960" xmlns="http://www.w3.org/2000/svg" xmlns:xlink="http://www.w3.org/1999/xlink" version="1.1"><rect x="0" y="0" width="540" height="960" fill="#FFFFFF"></rect><defs><linearGradient id="grad1_0" x1="0%" y1="0%" x2="100%" y2="100%"><stop offset="30%" stop-color="#ff0066" stop-opacity="1"></stop><stop offset="70%" stop-color="#ff0066" stop-opacity="1"></stop></linearGradient></defs><defs><linearGradient id="grad1_1" x1="0%" y1="0%" x2="100%" y2="100%"><stop offset="30%" stop-color="#ff0066" stop-opacity="1"></stop><stop offset="70%" stop-color="#ff7d96" stop-opacity="1"></stop></linearGradient></defs><defs><linearGradient id="grad1_2" x1="0%" y1="0%" x2="100%" y2="100%"><stop offset="30%" stop-color="#ffc0c9" stop-opacity="1"></stop><stop offset="70%" stop-color="#ff7d96" stop-opacity="1"></stop></linearGradient></defs><defs><linearGradient id="grad1_3" x1="0%" y1="0%" x2="100%" y2="100%"><stop offset="30%" stop-color="#ffc0c9" stop-opacity="1"></stop><stop offset="70%" stop-color="#ffffff" stop-opacity="1"></stop></linearGradient></defs><defs><linearGradient id="grad2_0" x1="0%" y1="0%" x2="100%" y2="100%"><stop offset="30%" stop-color="#ff0066" stop-opacity="1"></stop><stop offset="70%" stop-color="#ff0066" stop-opacity="1"></stop></linearGradient></defs><defs><linearGradient id="grad2_1" x1="0%" y1="0%" x2="100%" y2="100%"><stop offset="30%" stop-color="#ff7d96" stop-opacity="1"></stop><stop offset="70%" stop-color="#ff0066" stop-opacity="1"></stop></linearGradient></defs><defs><linearGradient id="grad2_2" x1="0%" y1="0%" x2="100%" y2="100%"><stop offset="30%" stop-color="#ff7d96" stop-opacity="1"></stop><stop offset="70%" stop-color="#ffc0c9" stop-opacity="1"></stop></linearGradient></defs><defs><linearGradient id="grad2_3" x1="0%" y1="0%" x2="100%" y2="100%"><stop offset="30%" stop-color="#ffffff" stop-opacity="1"></stop><stop offset="70%" stop-color="#ffc0c9" stop-opacity="1"></stop></linearGradient></defs><g transform="translate(540, 0)"><path d="M0 324C-38.3 310 -76.6 296.1 -117.1 282.7C-157.6 269.4 -200.3 256.6 -229.1 229.1C-257.9 201.6 -272.9 159.3 -286.4 118.6C-299.9 78 -312 39 -324 0L0 0Z" fill="#ffe0e4"></path><path d="M0 243C-28.7 232.5 -57.5 222 -87.8 212C-118.2 202 -150.2 192.5 -171.8 171.8C-193.4 151.2 -204.7 119.5 -214.8 89C-224.9 58.5 -234 29.2 -243 0L0 0Z" fill="#ffa0af"></path><path d="M0 162C-19.2 155 -38.3 148 -58.6 141.4C-78.8 134.7 -100.1 128.3 -114.6 114.6C-129 100.8 -136.4 79.6 -143.2 59.3C-150 39 -156 19.5 -162 0L0 0Z" fill="#ff547d"></path><path d="M0 81C-9.6 77.5 -19.2 74 -29.3 70.7C-39.4 67.3 -50.1 64.2 -57.3 57.3C-64.5 50.4 -68.2 39.8 -71.6 29.7C-75 19.5 -78 9.7 -81 0L0 0Z" fill="#ff0066"></path></g><g transform="translate(0, 960)"><path d="M0 -324C42.5 -319.9 85 -315.8 124 -299.3C163 -282.9 198.6 -254 219.9 -219.9C241.2 -185.8 248.3 -146.6 263.3 -109.1C278.3 -71.5 301.1 -35.8 324 0L0 0Z" fill="#ffe0e4"></path><path d="M0 -243C31.9 -239.9 63.7 -236.9 93 -224.5C122.3 -212.1 148.9 -190.5 164.9 -164.9C180.9 -139.4 186.2 -109.9 197.5 -81.8C208.7 -53.7 225.9 -26.8 243 0L0 0Z" fill="#ffa0af"></path><path d="M0 -162C21.2 -160 42.5 -157.9 62 -149.7C81.5 -141.4 99.3 -127 110 -110C120.6 -92.9 124.2 -73.3 131.7 -54.5C139.1 -35.8 150.6 -17.9 162 0L0 0Z" fill="#ff547d"></path><path d="M0 -81C10.6 -80 21.2 -79 31 -74.8C40.8 -70.7 49.6 -63.5 55 -55C60.3 -46.5 62.1 -36.6 65.8 -27.3C69.6 -17.9 75.3 -8.9 81 0L0 0Z" fill="#ff0066"></path></g></svg>