<svg id="visual" viewBox="0 0 540 960" width="540" height="960" xmlns="http://www.w3.org/2000/svg" xmlns:xlink="http://www.w3.org/1999/xlink" version="1.1"><rect x="0" y="0" width="540" height="960" fill="#FFFFFF"></rect><defs><linearGradient id="grad1_0" x1="0%" y1="0%" x2="100%" y2="100%"><stop offset="30%" stop-color="#ff0066" stop-opacity="1"></stop><stop offset="70%" stop-color="#ff0066" stop-opacity="1"></stop></linearGradient></defs><defs><linearGradient id="grad1_1" x1="0%" y1="0%" x2="100%" y2="100%"><stop offset="30%" stop-color="#ff0066" stop-opacity="1"></stop><stop offset="70%" stop-color="#ff7d96" stop-opacity="1"></stop></linearGradient></defs><defs><linearGradient id="grad1_2" x1="0%" y1="0%" x2="100%" y2="100%"><stop offset="30%" stop-color="#ffc0c9" stop-opacity="1"></stop><stop offset="70%" stop-color="#ff7d96" stop-opacity="1"></stop></linearGradient></defs><defs><linearGradient id="grad1_3" x1="0%" y1="0%" x2="100%" y2="100%"><stop offset="30%" stop-color="#ffc0c9" stop-opacity="1"></stop><stop offset="70%" stop-color="#ffffff" stop-opacity="1"></stop></linearGradient></defs><defs><linearGradient id="grad2_0" x1="0%" y1="0%" x2="100%" y2="100%"><stop offset="30%" stop-color="#ff0066" stop-opacity="1"></stop><stop offset="70%" stop-color="#ff0066" stop-opacity="1"></stop></linearGradient></defs><defs><linearGradient id="grad2_1" x1="0%" y1="0%" x2="100%" y2="100%"><stop offset="30%" stop-color="#ff7d96" stop-opacity="1"></stop><stop offset="70%" stop-color="#ff0066" stop-opacity="1"></stop></linearGradient></defs><defs><linearGradient id="grad2_2" x1="0%" y1="0%" x2="100%" y2="100%"><stop offset="30%" stop-color="#ff7d96" stop-opacity="1"></stop><stop offset="70%" stop-color="#ffc0c9" stop-opacity="1"></stop></linearGradient></defs><defs><linearGradient id="grad2_3" x1="0%" y1="0%" x2="100%" y2="100%"><stop offset="30%" stop-color="#ffffff" stop-opacity="1"></stop><stop offset="70%" stop-color="#ffc0c9" stop-opacity="1"></stop></linearGradient></defs><g transform="translate(540, 0)"><path d="M0 324C-44 320.4 -87.9 316.7 -123.6 298.4C-159.3 280.1 -186.6 247.2 -217.1 217.1C-247.5 187 -281 159.7 -299.3 124C-317.7 88.3 -320.8 44.1 -324 0L0 0Z" fill="#ffe0e4"></path><path d="M0 243C-33 240.3 -66 237.5 -92.7 223.8C-119.5 210.1 -140 185.4 -162.8 162.8C-185.6 140.2 -210.8 119.8 -224.5 93C-238.3 66.2 -240.6 33.1 -243 0L0 0Z" fill="#ffa0af"></path><path d="M0 162C-22 160.2 -44 158.4 -61.8 149.2C-79.6 140.1 -93.3 123.6 -108.5 108.5C-123.8 93.5 -140.5 79.8 -149.7 62C-158.8 44.1 -160.4 22.1 -162 0L0 0Z" fill="#ff547d"></path><path d="M0 81C-11 80.1 -22 79.2 -30.9 74.6C-39.8 70 -46.7 61.8 -54.3 54.3C-61.9 46.7 -70.3 39.9 -74.8 31C-79.4 22.1 -80.2 11 -81 0L0 0Z" fill="#ff0066"></path></g><g transform="translate(0, 960)"><path d="M0 -324C36.9 -307.8 73.8 -291.6 115.6 -279C157.4 -266.4 204.1 -257.4 229.1 -229.1C254.2 -200.8 257.6 -153.1 269.8 -111.7C282 -70.3 303 -35.2 324 0L0 0Z" fill="#ffe0e4"></path><path d="M0 -243C27.7 -230.9 55.3 -218.7 86.7 -209.3C118 -199.8 153 -193.1 171.8 -171.8C190.6 -150.6 193.2 -114.9 202.3 -83.8C211.5 -52.8 227.2 -26.4 243 0L0 0Z" fill="#ffa0af"></path><path d="M0 -162C18.4 -153.9 36.9 -145.8 57.8 -139.5C78.7 -133.2 102 -128.7 114.6 -114.6C127.1 -100.4 128.8 -76.6 134.9 -55.9C141 -35.2 151.5 -17.6 162 0L0 0Z" fill="#ff547d"></path><path d="M0 -81C9.2 -77 18.4 -72.9 28.9 -69.8C39.3 -66.6 51 -64.4 57.3 -57.3C63.5 -50.2 64.4 -38.3 67.4 -27.9C70.5 -17.6 75.7 -8.8 81 0L0 0Z" fill="#ff0066"></path></g></svg>