<svg id="e4ks8ZdSFJ31" xmlns="http://www.w3.org/2000/svg" xmlns:xlink="http://www.w3.org/1999/xlink" viewBox="0 0 434 671" shape-rendering="geometricPrecision" text-rendering="geometricPrecision"><defs><radialGradient id="e4ks8ZdSFJ331-stroke" cx="0" cy="0" r="0.5" spreadMethod="pad" gradientUnits="objectBoundingBox" gradientTransform="translate(0.5 0.5)"><stop id="e4ks8ZdSFJ331-stroke-0" offset="0%" stop-color="#000"/><stop id="e4ks8ZdSFJ331-stroke-1" offset="100%" stop-color="#fff"/></radialGradient></defs><g transform="translate(-69.23761 0)" clip-path="url(#e4ks8ZdSFJ333)"><g transform="matrix(.934259 0 0 0.941042 16.556972 32.520688)"><path d="M503.463,559h-336.926c-1.999-.003-3.914-.899-5.327-2.492-1.413-1.594-2.208-3.754-2.21-6.008v-544c.002-2.25357.797-4.41411,2.21-6.007629s3.328-2.489861,5.327-2.492371h336.926c1.999.00252,3.914.89886,5.327,2.492371s2.208,3.754059,2.21,6.007629v544c-.002,2.254-.797,4.414-2.21,6.008-1.413,1.593-3.328,2.489-5.327,2.492v0Z" fill="#3f3d56"/><path d="M497.392,549h-325.784c-2.017-.003-3.951-.899-5.377-2.492-1.426-1.594-2.229-3.754-2.231-6.008v-528c.002-2.2536.804-4.41411,2.231-6.00763c1.426-1.59351,3.36-2.48986,5.377-2.49237h325.784c2.017.00252,3.951.89886,5.377,2.49237C504.196,8.08588,504.998,10.2464,505,12.5v528c-.002,2.254-.805,4.414-2.231,6.008-1.426,1.593-3.36,2.489-5.377,2.492v0Z" fill="#fff"/><path d="M275.289,523.314c-32.38-42.744-19.539-91.529-38.51-125.563-72.706-130.439,16.822-118.422,118.042-93.055l.242,2.814c-64.423,9.942-106.792,43.098-116.242,90.966-7.344,37.201,6.133,80.82,37.95,122.821l-1.482,2.017Z" transform="translate(2.29371 3.971937)" fill="#f0f0f0"/><path d="M319.832,347l-.638-2.601c34.082-15.891,31.154-63.222,61.646-74.03c232.28-82.334,2.994-91.619-48.579-135.169C286.141,96.2544,235.878,50.975,172,27.655L172.51,25c64.157,23.4227,121.348,61.8144,161.036,108.103c39.889,46.521,57.369,95.519,49.219,137.968-6.426,33.474-28.188,59.73-62.933,75.929Z" fill="#f0f0f0"/><path d="M248.029,270.163c-16.517-1.305,2.973-12.235,4.278-28.752.308-3.929,1.388-7.758,3.177-11.27c1.789-3.511,4.252-6.635,7.249-9.195c2.997-2.559,6.468-4.502,10.216-5.719s7.7-1.684,11.628-1.374c3.929.31,7.758,1.392,11.268,3.182c3.511,1.791,6.634,4.255,9.192,7.253c2.557,2.998,4.5,6.471,5.715,10.219c1.215,3.749,1.68,7.7,1.368,11.629-1.304,16.517-47.574,25.332-64.091,24.027Z" fill="#6c63ff"/><path d="M406.62,167.333c-3.928-.31-7.756-1.391-11.265-3.181-3.51-1.789-6.633-4.253-9.191-7.249-2.557-2.997-4.5-6.468-5.716-10.215-1.217-3.747-1.683-7.697-1.373-11.624c1.305-16.517-31.495-27.566-14.978-26.262c16.517,1.305,76.097,14.47,74.792,30.987-.31,3.927-1.391,7.755-3.181,11.265-1.789,3.509-4.253,6.632-7.249,9.19-2.997,2.558-6.467,4.5-10.215,5.717-3.747,1.216-7.697,1.682-11.624,1.372Z" fill="#6c63ff"/><path d="M442.772,129.682c2.176,4.516.893,9.733-1.982,13.631-3.27,4.435-8.47,6.621-13.806,7.343-5.726.695-11.534.217-17.07-1.405-5.34-1.542-10.882-4.845-11.984-10.747-.734-3.933.944-8.131,5.029-9.221c1.638-.414,3.356-.4,4.987.043c1.63.442,3.12,1.298,4.324,2.483c3.392,3.53,3.134,9.196.978,13.296-2.535,4.823-7.608,7.484-12.823,8.362-6.201,1.044-12.432-.415-18.265-2.49-6.341-2.255-12.491-5.063-18.703-7.643-12.115-5.031-24.49-9.757-37.518-11.761-19.902-3.061-43.52,1.706-55.703,19.153-6.577,9.419-8.44,21.232-7.025,32.469c1.493,11.85,6.693,22.74,13.579,32.384c3.645,5.016,7.626,9.78,11.915,14.259c1.396,1.357,2.357,3.099,2.761,5.004.403,1.905.232,3.887-.494,5.695-3.774,9.273-18.864,6.318-19.989-3.241-.511-4.344,1.913-8.817,4.941-11.763c3.436-3.214,7.766-5.312,12.418-6.016c9.791-1.635,20.142,1.995,27.626,8.301c8.456,7.124,13.216,17.951,15.724,28.49c2.855,11.999,3,24.341,3.271,36.607.278,12.551.755,25.252,4.356,37.367c2.929,9.751,7.449,18.95,13.38,27.226c11.843,16.674,28.68,29.151,48.079,35.63c4.692,1.523,9.504,2.65,14.384,3.369c1.911.284,2.139-2.708.237-2.99-21.275-3.154-40.838-14.673-54.843-30.864-7.019-8.077-12.566-17.324-16.389-27.318-4.567-12.038-5.725-24.825-6.098-37.601-.381-13.049-.174-26.215-2.786-39.069-2.31-11.364-6.84-22.871-15.229-31.15-7.398-7.3-17.981-11.817-28.44-11.332-9.732.451-20.138,5.811-23.03,15.74-1.357,4.659-.494,9.661,3.063,13.122c2.028,1.923,4.55,3.248,7.284,3.826c2.735.578,5.577.387,8.209-.552c2.861-1.237,5.159-3.495,6.447-6.333s1.474-6.054.522-9.021c-.801-2.18-2.087-4.148-3.762-5.755-8.779-9.376-16.836-19.868-21.208-32.077-4.078-11.387-4.914-24.486-.211-35.817c8.903-21.45,34.741-27.896,55.788-24.898c13.775,1.962,26.817,7.177,39.576,12.512c6.515,2.723,12.989,5.751,19.746,7.836c6.05,1.867,12.542,2.804,18.775,1.273c5.44-1.336,10.44-4.499,13.075-9.559c2.394-4.597,2.807-10.429-.04-14.932-4.115-6.51-15.48-7.975-19.622-.662-2.748,4.851-1.397,11.064,2.212,15.088c4.046,4.512,10.105,6.354,15.903,7.284c10.957,1.758,24.45.377,30.312-10.446c2.415-4.458,3.067-9.774.82-14.435-.181-.344-.489-.605-.859-.727-.369-.122-.772-.095-1.122.074-.351.17-.622.469-.756.834s-.122.768.036,1.124v0Z" fill="#3f3d56"/><path d="M407.527,397.118c-17.516-1.384-64.349,22.583-77.026,12.272-1.584-1.278-3.117-2.62-4.598-4.024-4.847-4.546-9.128-9.66-12.75-15.232-.627-.942-1.224-1.892-1.801-2.85-2.031-3.405-3.819-6.948-5.351-10.605-.269-.663-.537-1.336-.804-2.009-7.135-18.438-7.496-38.809-1.02-57.488s19.369-34.455,36.385-44.52c17.015-10.065,37.051-13.767,56.54-10.446c19.489,3.32,37.167,13.448,49.89,28.58.68.796,1.337,1.61,1.984,2.444c6.458,8.271,11.292,17.689,14.248,27.758-.001.01.009.011.008.021c4.409,15.098,4.48,31.132.207,46.27l-.001.02c-.097.333-.193.667-.3.999-10.94,37.024-15.586,31.972-55.611,28.81Z" fill="#6c63ff"/><path d="M306.379,376.719c-.127.002-.254-.011-.378-.04-.269-.663-.537-1.336-.804-2.009.113-.282.309-.524.562-.692.254-.168.552-.255.856-.25c1.516-.005,3.027-.178,4.505-.516c12.828-2.899,20.305-16.031,23.509-27.755c3.931-14.345,3.985-29.759,11.091-43.141c2.761-5.499,6.82-10.243,11.826-13.821c5.496-3.725,12.175-5.287,18.753-4.387c15.477,2.045,26.774,13.962,41.142,18.869c5.919,2.022,12.22,2.52,18.139.219c5.029-1.95,9.617-5.801,10.656-11.336.034-.224.121-.437.252-.622s.304-.336.504-.442c.68.796,1.337,1.61,1.984,2.444-.231.999-.567,1.971-1.002,2.9-2.525,5.297-7.56,8.722-13.042,10.435-6.345,1.977-12.947,1.224-19.121-.989-14.399-5.16-26.241-17.912-42.138-18.706-13.779-.688-23.3,10.638-27.885,22.453-5.669,14.619-4.827,31.007-11.191,45.41-5.008,11.331-15.043,21.924-28.218,21.976Z" fill="#3f3d56"/><path d="M313.153,390.134c-.627-.942-1.224-1.892-1.801-2.85.14-.112.301-.192.474-.235s.354-.049.529-.017c12.857,1.517,25.807-1.935,36.203-9.649c4.561-3.335,8.526-7.418,11.727-12.074c3.324-4.873,5.332-10.352,7.585-15.762c2.216-5.322,4.818-10.704,9.225-14.558c4.493-3.929,10.291-5.577,16.163-5.755c13.916-.416,26.051,7.494,39.594,9.126c6.042.728,12.039-.142,17.211-3.516c4.463-2.917,7.713-7.485,7.504-12.969-.077-1.812,2.562-1.693,2.947-.098.027.11.041.222.044.334.239,6.379-3.683,11.837-8.845,15.211-5.998,3.93-13.007,4.901-20.02,3.906-13.57-1.935-26.112-10.148-40.153-8.91-2.946.17-5.824.957-8.447,2.31-2.623,1.354-4.933,3.243-6.779,5.545-3.695,4.744-5.647,10.538-7.927,16.036-2.164,5.494-5.189,10.608-8.961,15.151-3.818,4.435-8.321,8.231-13.337,11.245-9.868,6.023-21.431,8.666-32.936,7.529Z" fill="#3f3d56"/><path d="M330.501,409.39c-1.584-1.278-3.117-2.62-4.598-4.024c7.64,1.945,15.601,2.276,23.376.974c9.783-1.57,19.011-5.581,26.832-11.664c3.895-3.049,7.33-6.642,10.202-10.669c3.273-4.607,6.133-9.697,11.069-12.748c10.714-6.617,23.537-.568,34.234,2.684c5.584,1.705,11.581,2.861,17.267.973c4.41-1.467,8.689-4.72,9.56-9.527.34-1.889,3.342-1.662,2.991.237-.068.355-.146.71-.235,1.064-1.375,5.218-5.645,8.984-10.684,10.813-6.577,2.369-13.391,1.259-19.924-.732-10.746-3.276-24.789-10.013-34.511-.72-4.101,3.919-6.617,9.228-10.316,13.51-3.299,3.838-7.105,7.209-11.314,10.02-12.925,8.609-28.59,12.105-43.949,9.809Z" fill="#3f3d56"/><path d="M554.222,624.5h-71c-2.254-.003-4.414-.899-6.008-2.492-1.593-1.594-2.49-3.755-2.492-6.008v-25c.002-2.254.899-4.414,2.492-6.008c1.594-1.593,3.754-2.49,6.008-2.492h71c2.253.002,4.414.899,6.007,2.492c1.594,1.594,2.49,3.754,2.493,6.008v25c-.003,2.253-.899,4.414-2.493,6.008-1.593,1.593-3.754,2.489-6.007,2.492Z" fill="#e6e6e6"/><path d="M142.482,334.364l1.874,17.382-1.103,22.792l50.485-5.998l4.744-34.176-6.044.06-49.956-.06Z" fill="#ffb6b6"/><path d="M202.722,280.5l-15.609-5.773-6.67-9.686-23.992-2.399-14.799,9.481-12.407,6.318.212,32.987L143.722,370.5l51-2l6.713-42.123c0,0,15.595-20.947-1.2-32.943l2.487-12.934Z" transform="translate(-3.844144 5.228996)" fill="#ccc"/><path d="M116.296,649.938h11.038l5.252-42.574h-16.29v42.574Z" fill="#ffb6b6"/><path d="M112.694,642.378l17.634-1.052v7.555l16.765,11.578c.828.572,1.452,1.394,1.78,2.345s.343,1.982.044,2.943c-.3.961-.898,1.801-1.709,2.397-.81.596-1.79.918-2.797.918h-20.994l-3.618-7.473-1.413,7.473h-7.916l2.224-26.684Z" fill="#2f2e41"/><path d="M178.296,649.938h11.038l5.252-42.574h-16.29v42.574Z" fill="#ffb6b6"/><path d="M174.694,642.378l17.634-1.052v7.555l16.765,11.578c.828.572,1.452,1.394,1.78,2.345s.343,1.982.044,2.943c-.3.961-.898,1.801-1.709,2.397-.81.596-1.79.918-2.797.918h-20.994l-3.618-7.473-1.413,7.473h-7.916l2.224-26.684Z" fill="#2f2e41"/><path d="M111.534,613.224h.12l2.122-69.223c-1.373-2.65-2.07-5.598-2.029-8.582.041-2.985.82-5.913,2.267-8.523l.304-.55-.788-3.653c-1.012-4.693-.548-9.584,1.329-14.003l1.981-64.572c-7.075-45.851,26.642-75.754,26.642-75.754h50.508l10.843,37.256c7.169,69.84,5.868,137.898-5.507,203.834l.31.157c1.117.385,1.596,1.932,1.07,3.455s-1.857,2.445-2.974,2.06l-26.674-.928c-1.116-.386-1.596-1.933-1.07-3.455.526-1.523,1.857-2.445,2.974-2.06l1.813.917-3.867-66.797.429-12.201-.885-13.842-4.088-62.261-15.476,76.563-15.808,82.933c.436.395.742.912.877,1.485.136.572.095,1.172-.118,1.72-.212.549-.586,1.02-1.072,1.352-.485.332-1.06.508-1.648.506h-21.585c-.774,0-1.516-.307-2.063-.854s-.854-1.289-.854-2.063c0-.773.307-1.515.854-2.062s1.289-.855,2.063-.855v0Z" fill="#2f2e41"/><path d="M106.283,417.108c-.964-.929-1.713-2.058-2.193-3.308s-.68-2.589-.587-3.925c.094-1.335.479-2.634,1.129-3.805.65-1.17,1.549-2.184,2.633-2.969L120.722,320.5l15.782,5.553-15.992,79.57c1.199,1.909,1.656,4.191,1.285,6.414s-1.545,4.233-3.299,5.649c-1.754,1.415-3.966,2.139-6.217,2.032-2.252-.106-4.386-1.035-5.998-2.61v0Z" fill="#ffb6b6"/><path d="M131.367,278.367c0,0-4.527-1.706-6.17,8.411-1.315,8.1-14.156,56.988-12.941,68.316-1.507.528-2.796,1.542-3.663,2.883s-1.263,2.932-1.127,4.523l23.679.121c3.625-3.954,4.096-8.725,2.345-9.898l3.276-14.454l15.427-46.632-17.532-12.095-3.294-1.175Z" fill="#ccc"/><g id="e4ks8ZdSFJ325" transform="translate(-9.041017 21.253624)"><path d="M255.304,192.013c-1.443-.068-2.846.173-4.11.705-1.264.533-2.358,1.345-3.204,2.378-.847,1.033-1.426,2.263-1.696,3.603-.271,1.34-.226,2.757.13,4.152L199.323,271.29l18.053,9.409l41.796-69.534c2.316-.457,4.276-1.751,5.507-3.636c1.23-1.885,1.647-4.23,1.17-6.59-.477-2.361-1.813-4.574-3.757-6.219-1.943-1.645-4.358-2.608-6.788-2.707v0Z" fill="#ffb6b6"/><path d="M179.97,311.999c0,0-4.983-2.262.668-10.833c4.524-6.862,27.717-52.064,36.606-59.304-.897-1.544-1.274-3.27-1.069-4.908.204-1.637.977-3.091,2.197-4.134l19.947,18.185c.294,5.653-2.626,9.46-4.91,8.955l-7.294,12.962-19.456,45.569-23.109-4.798-3.58-1.694Z" fill="#ccc"/></g><g id="e4ks8ZdSFJ328" transform="matrix(.996891 0.078788-.078788 0.996891 33.092825-16.660593)"><path d="M157.92,260.938c13.186,0,23.876-10.69,23.876-23.876s-10.69-23.876-23.876-23.876-23.876,10.69-23.876,23.876s10.69,23.876,23.876,23.876Z" fill="#ffb8b8"/><path d="M110.469,287.239c-5.052-1.79-10.104-3.584-15.157-5.381.8709-1.461,1.9799-2.767,3.2813-3.862c4.8107-4.017,11.4507-4.743,17.5577-6.098c6.117-1.355,12.757-4.133,14.993-9.979c2.323-6.079-1.045-12.641-3-18.836-2.74-8.643-2.682-18.293.987-26.578c3.668-8.286,11.121-15.003,19.968-16.977c8.846-1.965,18.845,1.238,24.285,8.478c3.504-1.051,7.273-.783,10.593.754c3.32,1.538,5.963,4.237,7.429,7.59c1.268,3.174,1.307,6.998-.581,9.853-1.887,2.855-5.923,4.317-8.962,2.73l1.761-4.472c-5.449,1.849-8.992,11.702-8.256,17.413.726,5.701,4.055,10.695,7.433,15.35c3.378,4.656,6.979,9.36,8.431,14.926c2.091,8.004-.736,16.754-5.962,23.171-5.227,6.418-12.593,10.773-20.22,13.977-5.709,2.4-11.643,4.229-17.713,5.459c1.084-2.11,2.159-4.22,3.243-6.33l-12.864,7.782c-2.487.242-4.994.387-7.501.435-7.298.126-14.741-.638-21.42-3.552-6.688-2.923-12.5634-8.217-14.9832-15.099-.7758-2.226-1.143-4.574-1.0839-6.93c5.9137-1.278,11.8271-2.552,17.7411-3.824Z" transform="matrix(.983355 0.181694-.181694 0.983355 43.49258-21.602901)" fill="#2f2e41"/></g><path id="e4ks8ZdSFJ331" d="M343.507,629.323c-.742.034-1.475-.161-2.102-.558s-1.117-.978-1.403-1.663-.355-1.442-.198-2.167c.158-.726.535-1.385,1.08-1.889.091-.363.157-.624.248-.987-.033-.079-.066-.158-.099-.237-.746-1.765-1.998-3.27-3.596-4.326-1.599-1.055-3.474-1.615-5.389-1.608s-3.786.581-5.376,1.648c-1.591,1.068-2.831,2.582-3.565,4.353-2.932,7.067-6.664,14.146-7.583,21.618-.405,3.303-.234,6.651.504,9.895-6.886-15.033-10.462-31.372-10.485-47.91-.001-4.15.229-8.297.69-12.421.381-3.381.91-6.738,1.586-10.071c3.691-18.083,11.616-35.033,23.123-49.456c5.569-3.041,10.074-7.718,12.905-13.4c1.026-2.043,1.751-4.223,2.153-6.474-.628.083-1.267.135-1.895.176-.196.01-.402.02-.598.031l-.073.003c-.691.031-1.376-.138-1.972-.488-.597-.349-1.079-.864-1.391-1.481-.311-.618-.437-1.313-.363-2c.074-.688.345-1.34.781-1.877.271-.334.543-.668.814-1.002.412-.515.835-1.02,1.247-1.536.047-.049.092-.1.134-.154.473-.588.947-1.165,1.421-1.753-.865-1.343-2.028-2.468-3.399-3.288-4.748-2.783-11.299-.855-14.728,3.443-3.44,4.298-4.089,10.329-2.895,15.699c1.175,4.569,3.119,8.906,5.748,12.823-.258.329-.526.649-.783.979-4.707,6.057-8.81,12.562-12.249,19.42.837-7.683-.162-15.456-2.912-22.677-2.788-6.731-8.013-12.399-12.615-18.218-5.527-6.989-16.86-3.938-17.834,4.921-.01.086-.019.172-.028.257.684.386,1.353.796,2.007,1.229.823.55,1.46,1.335,1.828,2.254.369.918.452,1.927.238,2.893-.214.967-.715,1.846-1.436,2.523-.722.676-1.631,1.119-2.609,1.27l-.1.015c.244,2.466.674,4.909,1.288,7.309c1.778,6.699,4.919,12.959,9.228,18.387c4.308,5.428,9.691,9.906,15.81,13.154.402.206.793.413,1.195.608-3.456,9.8-5.623,20.008-6.448,30.367-.467,6.112-.439,12.251.083,18.358l-.031-.216c-1.319-6.791-4.939-12.919-10.248-17.348-7.887-6.484-19.029-8.871-27.537-14.083-.904-.581-1.956-.891-3.03-.894-1.075-.002-2.128.303-3.035.879-.907.577-1.63,1.401-2.085,2.376-.454.974-.62,2.058-.479,3.124.011.076.023.152.035.228c1.268.517,2.503,1.112,3.697,1.783.684.386,1.353.796,2.007,1.229.823.55,1.46,1.335,1.828,2.254.369.918.452,1.927.238,2.893s-.715,1.846-1.437,2.522c-.721.677-1.63,1.12-2.608,1.271l-.1.015c-.072.01-.134.021-.206.031c2.167,5.179,5.209,9.945,8.992,14.091c4.673,5.018,10.321,9.028,16.597,11.785c6.277,2.756,13.05,4.2,19.904,4.243h.011c1.86,8.092,4.556,15.968,8.044,23.502h28.736c.103-.32.195-.649.288-.969-2.66.167-5.33.008-7.951-.474c2.132-2.618,4.264-5.257,6.396-7.875.047-.049.092-.101.134-.155c1.081-1.34,2.173-2.67,3.254-4.01l.001-.001c.057-4.108-.413-8.206-1.401-12.193h-.001Z" transform="matrix(.935673 0.110784-.121783 1.028567 90.525054-33.884967)" fill="#63ffb6" stroke="url(#e4ks8ZdSFJ331-stroke)"/><path d="M363.81,670.657L88.1901,671c-.3156,0-.6183-.14-.8415-.389s-.3486-.587-.3486-.94c0-.352.1254-.69.3486-.939s.5259-.389.8415-.389L363.81,668c.315,0,.618.14.841.389.224.249.349.587.349.94c0,.352-.125.69-.349.939-.223.249-.526.389-.841.389v0Z" fill="#cacaca"/></g><clipPath id="e4ks8ZdSFJ333"><rect width="570.222" height="670.696" rx="0" ry="0" fill="#fff"/></clipPath></g><script><![CDATA[!function(t,n){"object"==typeof exports&&"undefined"!=typeof module?module.exports=n():"function"==typeof define&&define.amd?define(n):((t="undefined"!=typeof globalThis?globalThis:t||self).__SVGATOR_PLAYER__=t.__SVGATOR_PLAYER__||{},t.__SVGATOR_PLAYER__["5c7f360c"]=n())}(this,(function(){"use strict";function t(t,n){var r=Object.keys(t);if(Object.getOwnPropertySymbols){var e=Object.getOwnPropertySymbols(t);n&&(e=e.filter((function(n){return Object.getOwnPropertyDescriptor(t,n).enumerable}))),r.push.apply(r,e)}return r}function n(n){for(var r=1;r<arguments.length;r++){var e=null!=arguments[r]?arguments[r]:{};r%2?t(Object(e),!0).forEach((function(t){u(n,t,e[t])})):Object.getOwnPropertyDescriptors?Object.defineProperties(n,Object.getOwnPropertyDescriptors(e)):t(Object(e)).forEach((function(t){Object.defineProperty(n,t,Object.getOwnPropertyDescriptor(e,t))}))}return n}function r(t){return(r="function"==typeof Symbol&&"symbol"==typeof Symbol.iterator?function(t){return typeof t}:function(t){return t&&"function"==typeof Symbol&&t.constructor===Symbol&&t!==Symbol.prototype?"symbol":typeof t})(t)}function e(t,n){if(!(t instanceof n))throw new TypeError("Cannot call a class as a function")}function i(t,n){for(var r=0;r<n.length;r++){var e=n[r];e.enumerable=e.enumerable||!1,e.configurable=!0,"value"in e&&(e.writable=!0),Object.defineProperty(t,e.key,e)}}function o(t,n,r){return n&&i(t.prototype,n),r&&i(t,r),t}function u(t,n,r){return n in t?Object.defineProperty(t,n,{value:r,enumerable:!0,configurable:!0,writable:!0}):t[n]=r,t}function a(t){return(a=Object.setPrototypeOf?Object.getPrototypeOf:function(t){return t.__proto__||Object.getPrototypeOf(t)})(t)}function l(t,n){return(l=Object.setPrototypeOf||function(t,n){return t.__proto__=n,t})(t,n)}function f(){if("undefined"==typeof Reflect||!Reflect.construct)return!1;if(Reflect.construct.sham)return!1;if("function"==typeof Proxy)return!0;try{return Boolean.prototype.valueOf.call(Reflect.construct(Boolean,[],(function(){}))),!0}catch(t){return!1}}function s(t,n,r){return(s=f()?Reflect.construct:function(t,n,r){var e=[null];e.push.apply(e,n);var i=new(Function.bind.apply(t,e));return r&&l(i,r.prototype),i}).apply(null,arguments)}function c(t,n){if(n&&("object"==typeof n||"function"==typeof n))return n;if(void 0!==n)throw new TypeError("Derived constructors may only return object or undefined");return function(t){if(void 0===t)throw new ReferenceError("this hasn't been initialised - super() hasn't been called");return t}(t)}function h(t,n,r){return(h="undefined"!=typeof Reflect&&Reflect.get?Reflect.get:function(t,n,r){var e=function(t,n){for(;!Object.prototype.hasOwnProperty.call(t,n)&&null!==(t=a(t)););return t}(t,n);if(e){var i=Object.getOwnPropertyDescriptor(e,n);return i.get?i.get.call(r):i.value}})(t,n,r||t)}function v(t){return function(t){if(Array.isArray(t))return y(t)}(t)||function(t){if("undefined"!=typeof Symbol&&null!=t[Symbol.iterator]||null!=t["@@iterator"])return Array.from(t)}(t)||function(t,n){if(!t)return;if("string"==typeof t)return y(t,n);var r=Object.prototype.toString.call(t).slice(8,-1);"Object"===r&&t.constructor&&(r=t.constructor.name);if("Map"===r||"Set"===r)return Array.from(t);if("Arguments"===r||/^(?:Ui|I)nt(?:8|16|32)(?:Clamped)?Array$/.test(r))return y(t,n)}(t)||function(){throw new TypeError("Invalid attempt to spread non-iterable instance.\nIn order to be iterable, non-array objects must have a [Symbol.iterator]() method.")}()}function y(t,n){(null==n||n>t.length)&&(n=t.length);for(var r=0,e=new Array(n);r<n;r++)e[r]=t[r];return e}Number.isInteger||(Number.isInteger=function(t){return"number"==typeof t&&isFinite(t)&&Math.floor(t)===t}),Number.EPSILON||(Number.EPSILON=2220446049250313e-31);var g=p(Math.pow(10,-6));function p(t){var n=arguments.length>1&&void 0!==arguments[1]?arguments[1]:6;if(Number.isInteger(t))return t;var r=Math.pow(10,n);return Math.round((+t+Number.EPSILON)*r)/r}function d(t,n){var r=arguments.length>2&&void 0!==arguments[2]?arguments[2]:g;return Math.abs(t-n)<r}var m=Math.PI/180;function b(t){return t}function w(t,n,r){var e=1-r;return 3*r*e*(t*e+n*r)+r*r*r}function x(){var t=arguments.length>0&&void 0!==arguments[0]?arguments[0]:0,n=arguments.length>1&&void 0!==arguments[1]?arguments[1]:0,r=arguments.length>2&&void 0!==arguments[2]?arguments[2]:1,e=arguments.length>3&&void 0!==arguments[3]?arguments[3]:1;return t<0||t>1||r<0||r>1?null:d(t,n)&&d(r,e)?b:function(i){if(i<=0)return t>0?i*n/t:0===n&&r>0?i*e/r:0;if(i>=1)return r<1?1+(i-1)*(e-1)/(r-1):1===r&&t<1?1+(i-1)*(n-1)/(t-1):1;for(var o,u=0,a=1;u<a;){var l=w(t,r,o=(u+a)/2);if(d(i,l))break;l<i?u=o:a=o}return w(n,e,o)}}function A(){return 1}function k(t){return 1===t?1:0}function _(){var t=arguments.length>0&&void 0!==arguments[0]?arguments[0]:1,n=arguments.length>1&&void 0!==arguments[1]?arguments[1]:0;if(1===t){if(0===n)return k;if(1===n)return A}var r=1/t;return function(t){return t>=1?1:(t+=n*r)-t%r}}var S=Math.sin,O=Math.cos,j=Math.acos,M=Math.asin,P=Math.tan,E=Math.atan2,I=Math.PI/180,R=180/Math.PI,F=Math.sqrt,N=function(){function t(){var n=arguments.length>0&&void 0!==arguments[0]?arguments[0]:1,r=arguments.length>1&&void 0!==arguments[1]?arguments[1]:0,i=arguments.length>2&&void 0!==arguments[2]?arguments[2]:0,o=arguments.length>3&&void 0!==arguments[3]?arguments[3]:1,u=arguments.length>4&&void 0!==arguments[4]?arguments[4]:0,a=arguments.length>5&&void 0!==arguments[5]?arguments[5]:0;e(this,t),this.m=[n,r,i,o,u,a],this.i=null,this.w=null,this.s=null}return o(t,[{key:"determinant",get:function(){var t=this.m;return t[0]*t[3]-t[1]*t[2]}},{key:"isIdentity",get:function(){if(null===this.i){var t=this.m;this.i=1===t[0]&&0===t[1]&&0===t[2]&&1===t[3]&&0===t[4]&&0===t[5]}return this.i}},{key:"point",value:function(t,n){var r=this.m;return{x:r[0]*t+r[2]*n+r[4],y:r[1]*t+r[3]*n+r[5]}}},{key:"translateSelf",value:function(){var t=arguments.length>0&&void 0!==arguments[0]?arguments[0]:0,n=arguments.length>1&&void 0!==arguments[1]?arguments[1]:0;if(!t&&!n)return this;var r=this.m;return r[4]+=r[0]*t+r[2]*n,r[5]+=r[1]*t+r[3]*n,this.w=this.s=this.i=null,this}},{key:"rotateSelf",value:function(){var t=arguments.length>0&&void 0!==arguments[0]?arguments[0]:0;if(t%=360){var n=S(t*=I),r=O(t),e=this.m,i=e[0],o=e[1];e[0]=i*r+e[2]*n,e[1]=o*r+e[3]*n,e[2]=e[2]*r-i*n,e[3]=e[3]*r-o*n,this.w=this.s=this.i=null}return this}},{key:"scaleSelf",value:function(){var t=arguments.length>0&&void 0!==arguments[0]?arguments[0]:1,n=arguments.length>1&&void 0!==arguments[1]?arguments[1]:1;if(1!==t||1!==n){var r=this.m;r[0]*=t,r[1]*=t,r[2]*=n,r[3]*=n,this.w=this.s=this.i=null}return this}},{key:"skewSelf",value:function(t,n){if(n%=360,(t%=360)||n){var r=this.m,e=r[0],i=r[1],o=r[2],u=r[3];t&&(t=P(t*I),r[2]+=e*t,r[3]+=i*t),n&&(n=P(n*I),r[0]+=o*n,r[1]+=u*n),this.w=this.s=this.i=null}return this}},{key:"resetSelf",value:function(){var t=arguments.length>0&&void 0!==arguments[0]?arguments[0]:1,n=arguments.length>1&&void 0!==arguments[1]?arguments[1]:0,r=arguments.length>2&&void 0!==arguments[2]?arguments[2]:0,e=arguments.length>3&&void 0!==arguments[3]?arguments[3]:1,i=arguments.length>4&&void 0!==arguments[4]?arguments[4]:0,o=arguments.length>5&&void 0!==arguments[5]?arguments[5]:0,u=this.m;return u[0]=t,u[1]=n,u[2]=r,u[3]=e,u[4]=i,u[5]=o,this.w=this.s=this.i=null,this}},{key:"recomposeSelf",value:function(){var t=arguments.length>0&&void 0!==arguments[0]?arguments[0]:null,n=arguments.length>1&&void 0!==arguments[1]?arguments[1]:null,r=arguments.length>2&&void 0!==arguments[2]?arguments[2]:null,e=arguments.length>3&&void 0!==arguments[3]?arguments[3]:null,i=arguments.length>4&&void 0!==arguments[4]?arguments[4]:null;return this.isIdentity||this.resetSelf(),t&&(t.x||t.y)&&this.translateSelf(t.x,t.y),n&&this.rotateSelf(n),r&&(r.x&&this.skewSelf(r.x,0),r.y&&this.skewSelf(0,r.y)),!e||1===e.x&&1===e.y||this.scaleSelf(e.x,e.y),i&&(i.x||i.y)&&this.translateSelf(i.x,i.y),this}},{key:"decompose",value:function(){var t=arguments.length>0&&void 0!==arguments[0]?arguments[0]:0,n=arguments.length>1&&void 0!==arguments[1]?arguments[1]:0,r=this.m,e=r[0]*r[0]+r[1]*r[1],i=[[r[0],r[1]],[r[2],r[3]]],o=F(e);if(0===o)return{origin:{x:p(r[4]),y:p(r[5])},translate:{x:p(t),y:p(n)},scale:{x:0,y:0},skew:{x:0,y:0},rotate:0};i[0][0]/=o,i[0][1]/=o;var u=r[0]*r[3]-r[1]*r[2]<0;u&&(o=-o);var a=i[0][0]*i[1][0]+i[0][1]*i[1][1];i[1][0]-=i[0][0]*a,i[1][1]-=i[0][1]*a;var l=F(i[1][0]*i[1][0]+i[1][1]*i[1][1]);if(0===l)return{origin:{x:p(r[4]),y:p(r[5])},translate:{x:p(t),y:p(n)},scale:{x:p(o),y:0},skew:{x:0,y:0},rotate:0};i[1][0]/=l,i[1][1]/=l,a/=l;var f=0;return i[1][1]<0?(f=j(i[1][1])*R,i[0][1]<0&&(f=360-f)):f=M(i[0][1])*R,u&&(f=-f),a=E(a,F(i[0][0]*i[0][0]+i[0][1]*i[0][1]))*R,u&&(a=-a),{origin:{x:p(r[4]),y:p(r[5])},translate:{x:p(t),y:p(n)},scale:{x:p(o),y:p(l)},skew:{x:p(a),y:0},rotate:p(f)}}},{key:"clone",value:function(){var t=this.m;return new this.constructor(t[0],t[1],t[2],t[3],t[4],t[5])}},{key:"toString",value:function(){var t=arguments.length>0&&void 0!==arguments[0]?arguments[0]:" ";if(null===this.s){var n=this.m.map((function(t){return p(t)}));1===n[0]&&0===n[1]&&0===n[2]&&1===n[3]?this.s="translate("+n[4]+t+n[5]+")":this.s="matrix("+n.join(t)+")"}return this.s}}],[{key:"create",value:function(t){return t?Array.isArray(t)?s(this,v(t)):t instanceof this?t.clone():(new this).recomposeSelf(t.origin,t.rotate,t.skew,t.scale,t.translate):new this}}]),t}();function T(t,n,r){return t>=.5?r:n}function q(t,n,r){return 0===t||n===r?n:t*(r-n)+n}function B(t,n,r){var e=q(t,n,r);return e<=0?0:e}function L(t,n,r){var e=q(t,n,r);return e<=0?0:e>=1?1:e}function C(t,n,r){return 0===t?n:1===t?r:{x:q(t,n.x,r.x),y:q(t,n.y,r.y)}}function D(t,n,r){var e=function(t,n,r){return Math.round(q(t,n,r))}(t,n,r);return e<=0?0:e>=255?255:e}function z(t,n,r){return 0===t?n:1===t?r:{r:D(t,n.r,r.r),g:D(t,n.g,r.g),b:D(t,n.b,r.b),a:q(t,null==n.a?1:n.a,null==r.a?1:r.a)}}function V(t,n){for(var r=[],e=0;e<t;e++)r.push(n);return r}function G(t,n){if(--n<=0)return t;var r=(t=Object.assign([],t)).length;do{for(var e=0;e<r;e++)t.push(t[e])}while(--n>0);return t}var Y,$=function(){function t(n){e(this,t),this.list=n,this.length=n.length}return o(t,[{key:"setAttribute",value:function(t,n){for(var r=this.list,e=0;e<this.length;e++)r[e].setAttribute(t,n)}},{key:"removeAttribute",value:function(t){for(var n=this.list,r=0;r<this.length;r++)n[r].removeAttribute(t)}},{key:"style",value:function(t,n){for(var r=this.list,e=0;e<this.length;e++)r[e].style[t]=n}}]),t}(),U=/-./g,Q=function(t,n){return n.toUpperCase()};function H(t){return"function"==typeof t?t:T}function J(t){return t?"function"==typeof t?t:Array.isArray(t)?function(t){var n=arguments.length>1&&void 0!==arguments[1]?arguments[1]:b;if(!Array.isArray(t))return n;switch(t.length){case 1:return _(t[0])||n;case 2:return _(t[0],t[1])||n;case 4:return x(t[0],t[1],t[2],t[3])||n}return n}(t,null):function(t,n){var r=arguments.length>2&&void 0!==arguments[2]?arguments[2]:b;switch(t){case"linear":return b;case"steps":return _(n.steps||1,n.jump||0)||r;case"bezier":case"cubic-bezier":return x(n.x1||0,n.y1||0,n.x2||0,n.y2||0)||r}return r}(t.type,t.value,null):null}function Z(t,n,r){var e=arguments.length>3&&void 0!==arguments[3]&&arguments[3],i=n.length-1;if(t<=n[0].t)return e?[0,0,n[0].v]:n[0].v;if(t>=n[i].t)return e?[i,1,n[i].v]:n[i].v;var o,u=n[0],a=null;for(o=1;o<=i;o++){if(!(t>n[o].t)){a=n[o];break}u=n[o]}return null==a?e?[i,1,n[i].v]:n[i].v:u.t===a.t?e?[o,1,a.v]:a.v:(t=(t-u.t)/(a.t-u.t),u.e&&(t=u.e(t)),e?[o,t,r(t,u.v,a.v)]:r(t,u.v,a.v))}function K(t,n){var r=arguments.length>2&&void 0!==arguments[2]?arguments[2]:null;return t&&t.length?"function"!=typeof n?null:("function"!=typeof r&&(r=null),function(e){var i=Z(e,t,n);return null!=i&&r&&(i=r(i)),i}):null}function W(t,n){return t.t-n.t}function X(t,n,e,i,o){var u,a="@"===e[0],l="#"===e[0],f=Y[e],s=T;switch(a?(u=e.substr(1),e=u.replace(U,Q)):l&&(e=e.substr(1)),r(f)){case"function":if(s=f(i,o,Z,J,e,a,n,t),l)return s;break;case"string":s=K(i,H(f));break;case"object":if((s=K(i,H(f.i),f.f))&&"function"==typeof f.u)return f.u(n,s,e,a,t)}return s?function(t,n,r){if(arguments.length>3&&void 0!==arguments[3]&&arguments[3])return t instanceof $?function(e){return t.style(n,r(e))}:function(e){return t.style[n]=r(e)};if(Array.isArray(n)){var e=n.length;return function(i){var o=r(i);if(null==o)for(var u=0;u<e;u++)t[u].removeAttribute(n);else for(var a=0;a<e;a++)t[a].setAttribute(n,o)}}return function(e){var i=r(e);null==i?t.removeAttribute(n):t.setAttribute(n,i)}}(n,e,s,a):null}function tt(t,n,e,i){if(!i||"object"!==r(i))return null;var o=null,u=null;return Array.isArray(i)?u=function(t){if(!t||!t.length)return null;for(var n=0;n<t.length;n++)t[n].e&&(t[n].e=J(t[n].e));return t.sort(W)}(i):(u=i.keys,o=i.data||null),u?X(t,n,e,u,o):null}function nt(t,n,r){if(!r)return null;var e=[];for(var i in r)if(r.hasOwnProperty(i)){var o=tt(t,n,i,r[i]);o&&e.push(o)}return e.length?e:null}function rt(t,n){if(!n.duration||n.duration<0)return null;var r=function(t,n){if(!n)return null;var r=[];if(Array.isArray(n))for(var e=n.length,i=0;i<e;i++){var o=n[i];if(2===o.length){var u=null;if("string"==typeof o[0])u=t.getElementById(o[0]);else if(Array.isArray(o[0])){u=[];for(var a=0;a<o[0].length;a++)if("string"==typeof o[0][a]){var l=t.getElementById(o[0][a]);l&&u.push(l)}u=u.length?1===u.length?u[0]:new $(u):null}if(u){var f=nt(t,u,o[1]);f&&(r=r.concat(f))}}}else for(var s in n)if(n.hasOwnProperty(s)){var c=t.getElementById(s);if(c){var h=nt(t,c,n[s]);h&&(r=r.concat(h))}}return r.length?r:null}(t,n.elements);return r?function(t,n){var r=arguments.length>2&&void 0!==arguments[2]?arguments[2]:1/0,e=arguments.length>3&&void 0!==arguments[3]?arguments[3]:1,i=arguments.length>4&&void 0!==arguments[4]&&arguments[4],o=arguments.length>5&&void 0!==arguments[5]?arguments[5]:1,u=t.length,a=e>0?n:0;i&&r%2==0&&(a=n-a);var l=null;return function(f,s){var c=f%n,h=1+(f-c)/n;s*=e,i&&h%2==0&&(s=-s);var v=!1;if(h>r)c=a,v=!0,-1===o&&(c=e>0?0:n);else if(s<0&&(c=n-c),c===l)return!1;l=c;for(var y=0;y<u;y++)t[y](c);return v}}(r,n.duration,n.iterations||1/0,n.direction||1,!!n.alternate,n.fill||1):null}function et(t){return+("0x"+(t.replace(/[^0-9a-fA-F]+/g,"")||27))}function it(t,n,r){return!t||!r||n>t.length?t:t.substring(0,n)+it(t.substring(n+1),r,r)}function ot(t){var n=arguments.length>1&&void 0!==arguments[1]?arguments[1]:27;return!t||t%n?t%n:ot(t/n,n)}function ut(t,n,r){if(t&&t.length){var e=et(r),i=et(n),o=ot(e)+5,u=it(t,ot(e,5),o);return u=u.replace(/\x7c$/g,"==").replace(/\x2f$/g,"="),u=function(t,n,r){var e=+("0x"+t.substring(0,4));t=t.substring(4);for(var i=n%e+r%27,o=[],u=0;u<t.length;u+=2)if("|"!==t[u]){var a=+("0x"+t[u]+t[u+1])-i;o.push(a)}else{var l=+("0x"+t.substring(u+1,u+1+4))-i;u+=3,o.push(l)}return String.fromCharCode.apply(String,o)}(u=(u=atob(u)).replace(/[\x41-\x5A]/g,""),i,e),u=JSON.parse(u)}}var at=function(){function t(n,r){var i=arguments.length>2&&void 0!==arguments[2]?arguments[2]:{};e(this,t),this._id=0,this._running=!1,this._rollingBack=!1,this._animations=n,this.duration=r.duration,this.alternate=r.alternate,this.fill=r.fill,this.iterations=r.iterations,this.direction=i.direction||1,this.speed=i.speed||1,this.fps=i.fps||100,this.offset=i.offset||0,this.rollbackStartOffset=0}return o(t,[{key:"maxFiniteDuration",get:function(){return this.iterations>0?this.iterations*this.duration:this.duration}},{key:"_apply",value:function(t){for(var n=arguments.length>1&&void 0!==arguments[1]?arguments[1]:{},r=this._animations,e=r.length,i=0,o=0;o<e;o++)n[o]?i++:(n[o]=r[o](t,this.direction),n[o]&&i++);return i}},{key:"_rollback",value:function(){var t=this,n=1/0,r=null;this.rollbackStartOffset=this.offset,this._rollingBack=!0,this._running=!0;this._id=window.requestAnimationFrame((function e(i){if(t._rollingBack){null==r&&(r=i);var o=i-r,u=t.rollbackStartOffset-o,a=Math.round(u*t.speed);if(a>t.duration&&n!==1/0){var l=!!t.alternate&&a/t.duration%2>1,f=a%t.duration;a=(f+=l?t.duration:0)||t.duration}var s=t.fps?1e3/t.fps:0,c=Math.max(0,a);c<n-s&&(t.offset=c,n=c,t._apply(c));var h=t.iterations>0&&-1===t.fill&&a>=t.maxFiniteDuration;(a<=0||t.offset<a||h)&&t.stop(),t._id=window.requestAnimationFrame(e)}}))}},{key:"_start",value:function(){var t=this,n=arguments.length>0&&void 0!==arguments[0]?arguments[0]:0,r=-1/0,e=null,i={};this._running=!0;var o=function o(u){null==e&&(e=u);var a=Math.round((u-e+n)*t.speed),l=t.fps?1e3/t.fps:0;if(a>r+l&&!t._rollingBack&&(t.offset=a,r=a,t._apply(a,i)===t._animations.length))return void t.pause(!0);t._id=window.requestAnimationFrame(o)};this._id=window.requestAnimationFrame(o)}},{key:"_pause",value:function(){this._id&&window.cancelAnimationFrame(this._id),this._running=!1}},{key:"play",value:function(){if(!this._running)return this._rollingBack?this._rollback():this._start(this.offset)}},{key:"stop",value:function(){this._pause(),this.offset=0,this.rollbackStartOffset=0,this._rollingBack=!1,this._apply(0)}},{key:"reachedToEnd",value:function(){return this.iterations>0&&this.offset>=this.iterations*this.duration}},{key:"restart",value:function(){var t=arguments.length>0&&void 0!==arguments[0]&&arguments[0];this.stop(t),this.play(t)}},{key:"pause",value:function(){this._pause()}},{key:"reverse",value:function(){this.direction=-this.direction}}],[{key:"build",value:function(t,r){return delete t.animationSettings,t.options=ut(t.options,t.root,"5c7f360c"),t.animations.map((function(r){var e=ut(r.s,t.root,"5c7f360c");for(var i in delete r.s,t.animationSettings||(t.animationSettings=n({},e)),e)e.hasOwnProperty(i)&&(r[i]=e[i])})),(t=function(t,n){if(Y=n,!t||!t.root||!Array.isArray(t.animations))return null;for(var r=document.getElementsByTagName("svg"),e=!1,i=0;i<r.length;i++)if(r[i].id===t.root&&!r[i].svgatorAnimation){(e=r[i]).svgatorAnimation=!0;break}if(!e)return null;var o=t.animations.map((function(t){return rt(e,t)})).filter((function(t){return!!t}));return o.length?{element:e,animations:o,animationSettings:t.animationSettings,options:t.options||void 0}:null}(t,r))?{el:t.element,options:t.options||{},player:new this(t.animations,t.animationSettings,t.options)}:null}},{key:"push",value:function(t){return this.build(t)}},{key:"init",value:function(){var t=this,n=window.__SVGATOR_PLAYER__&&window.__SVGATOR_PLAYER__["5c7f360c"];Array.isArray(n)&&n.splice(0).forEach((function(n){return t.build(n)}))}}]),t}();function lt(t){return p(t)+""}function ft(t){var n=arguments.length>1&&void 0!==arguments[1]?arguments[1]:" ";return t&&t.length?t.map(lt).join(n):""}function st(t){if(!t)return"transparent";if(null==t.a||t.a>=1){var n=function(t){return 1===(t=parseInt(t).toString(16)).length?"0"+t:t},r=function(t){return t.charAt(0)===t.charAt(1)},e=n(t.r),i=n(t.g),o=n(t.b);return r(e)&&r(i)&&r(o)&&(e=e.charAt(0),i=i.charAt(0),o=o.charAt(0)),"#"+e+i+o}return"rgba("+t.r+","+t.g+","+t.b+","+t.a+")"}function ct(t){return t?"url(#"+t+")":"none"}!function(){for(var t=0,n=["ms","moz","webkit","o"],r=0;r<n.length&&!window.requestAnimationFrame;++r)window.requestAnimationFrame=window[n[r]+"RequestAnimationFrame"],window.cancelAnimationFrame=window[n[r]+"CancelAnimationFrame"]||window[n[r]+"CancelRequestAnimationFrame"];window.requestAnimationFrame||(window.requestAnimationFrame=function(n){var r=Date.now(),e=Math.max(0,16-(r-t)),i=window.setTimeout((function(){n(r+e)}),e);return t=r+e,i},window.cancelAnimationFrame=window.clearTimeout)}();var ht={f:null,i:function(t,n,r){return 0===t?n:1===t?r:{x:B(t,n.x,r.x),y:B(t,n.y,r.y)}},u:function(t,n){return function(r){var e=n(r);t.setAttribute("rx",lt(e.x)),t.setAttribute("ry",lt(e.y))}}},vt={f:null,i:function(t,n,r){return 0===t?n:1===t?r:{width:B(t,n.width,r.width),height:B(t,n.height,r.height)}},u:function(t,n){return function(r){var e=n(r);t.setAttribute("width",lt(e.width)),t.setAttribute("height",lt(e.height))}}};Object.freeze({M:2,L:2,Z:0,H:1,V:1,C:6,Q:4,T:2,S:4,A:7});var yt={},gt=null;function pt(t){var n=function(){if(gt)return gt;if("object"!==("undefined"==typeof document?"undefined":r(document))||!document.createElementNS)return{};var t=document.createElementNS("http://www.w3.org/2000/svg","svg");return t&&t.style?(t.style.position="absolute",t.style.opacity="0.01",t.style.zIndex="-9999",t.style.left="-9999px",t.style.width="1px",t.style.height="1px",gt={svg:t}):{}}().svg;if(!n)return function(t){return null};var e=document.createElementNS(n.namespaceURI,"path");e.setAttributeNS(null,"d",t),e.setAttributeNS(null,"fill","none"),e.setAttributeNS(null,"stroke","none"),n.appendChild(e);var i=e.getTotalLength();return function(t){var n=e.getPointAtLength(i*t);return{x:n.x,y:n.y}}}function dt(t){return yt[t]?yt[t]:yt[t]=pt(t)}function mt(t,n,r,e){if(!t||!e)return!1;var i=["M",t.x,t.y];if(n&&r&&(i.push("C"),i.push(n.x),i.push(n.y),i.push(r.x),i.push(r.y)),n?!r:r){var o=n||r;i.push("Q"),i.push(o.x),i.push(o.y)}return n||r||i.push("L"),i.push(e.x),i.push(e.y),i.join(" ")}function bt(t,n,r,e){var i=arguments.length>4&&void 0!==arguments[4]?arguments[4]:1,o=mt(t,n,r,e),u=dt(o);try{return u(i)}catch(t){return null}}function wt(t,n,r){return t+(n-t)*r}function xt(t,n,r){var e=arguments.length>3&&void 0!==arguments[3]&&arguments[3],i={x:wt(t.x,n.x,r),y:wt(t.y,n.y,r)};return e&&(i.a=At(t,n)),i}function At(t,n){return Math.atan2(n.y-t.y,n.x-t.x)}function kt(t,n,r,e){var i=1-e;return i*i*t+2*i*e*n+e*e*r}function _t(t,n,r,e){return 2*(1-e)*(n-t)+2*e*(r-n)}function St(t,n,r,e){var i=arguments.length>4&&void 0!==arguments[4]&&arguments[4],o=bt(t,n,null,r,e);return o||(o={x:kt(t.x,n.x,r.x,e),y:kt(t.y,n.y,r.y,e)}),i&&(o.a=Ot(t,n,r,e)),o}function Ot(t,n,r,e){return Math.atan2(_t(t.y,n.y,r.y,e),_t(t.x,n.x,r.x,e))}function jt(t,n,r,e,i){var o=i*i;return i*o*(e-t+3*(n-r))+3*o*(t+r-2*n)+3*i*(n-t)+t}function Mt(t,n,r,e,i){var o=1-i;return 3*(o*o*(n-t)+2*o*i*(r-n)+i*i*(e-r))}function Pt(t,n,r,e,i){var o=arguments.length>5&&void 0!==arguments[5]&&arguments[5],u=bt(t,n,r,e,i);return u||(u={x:jt(t.x,n.x,r.x,e.x,i),y:jt(t.y,n.y,r.y,e.y,i)}),o&&(u.a=Et(t,n,r,e,i)),u}function Et(t,n,r,e,i){return Math.atan2(Mt(t.y,n.y,r.y,e.y,i),Mt(t.x,n.x,r.x,e.x,i))}function It(t,n,r){var e=arguments.length>3&&void 0!==arguments[3]&&arguments[3];if(Ft(n)){if(Nt(r))return St(n,r.start,r,t,e)}else if(Ft(r)){if(n.end)return St(n,n.end,r,t,e)}else{if(n.end)return r.start?Pt(n,n.end,r.start,r,t,e):St(n,n.end,r,t,e);if(r.start)return St(n,r.start,r,t,e)}return xt(n,r,t,e)}function Rt(t,n,r){var e=It(t,n,r,!0);return e.a=function(t){return arguments.length>1&&void 0!==arguments[1]&&arguments[1]?t+Math.PI:t}(e.a)/m,e}function Ft(t){return!t.type||"corner"===t.type}function Nt(t){return null!=t.start&&!Ft(t)}var Tt=new N;var qt={f:lt,i:q},Bt={f:lt,i:L};function Lt(t,n,r){return t.map((function(t){return function(t,n,r){var e=t.v;if(!e||"g"!==e.t||e.s||!e.v||!e.r)return t;var i=r.getElementById(e.r),o=i&&i.querySelectorAll("stop")||[];return e.s=e.v.map((function(t,n){var r=o[n]&&o[n].getAttribute("offset");return{c:t,o:r=p(parseInt(r)/100)}})),delete e.v,t}(t,0,r)}))}var Ct={gt:"gradientTransform",c:{x:"cx",y:"cy"},rd:"r",f:{x:"x1",y:"y1"},to:{x:"x2",y:"y2"}};function Dt(t,n,e,i,o,u,a,l){return Lt(t,0,l),n=function(t,n,r){for(var e,i,o,u=t.length-1,a={},l=0;l<=u;l++)(e=t[l]).e&&(e.e=n(e.e)),e.v&&"g"===(i=e.v).t&&i.r&&(o=r.getElementById(i.r))&&(a[i.r]={e:o,s:o.querySelectorAll("stop")});return a}(t,i,l),function(i){var o=e(i,t,zt);if(!o)return"none";if("c"===o.t)return st(o.v);if("g"===o.t){if(!n[o.r])return ct(o.r);var u=n[o.r];return function(t,n){for(var r=t.s,e=r.length;e<n.length;e++){var i=r[r.length-1].cloneNode();i.id=Yt(i.id),t.e.appendChild(i),r=t.s=t.e.querySelectorAll("stop")}for(var o=0,u=r.length,a=n.length-1;o<u;o++)r[o].setAttribute("stop-color",st(n[Math.min(o,a)].c)),r[o].setAttribute("offset",n[Math.min(o,a)].o)}(u,o.s),Object.keys(Ct).forEach((function(t){if(void 0!==o[t])if("object"!==r(Ct[t])){var n,e="gt"===t?(n=o[t],Array.isArray(n)?"matrix("+n.join(" ")+")":""):o[t],i=Ct[t];u.e.setAttribute(i,e)}else Object.keys(Ct[t]).forEach((function(n){if(void 0!==o[t][n]){var r=o[t][n],e=Ct[t][n];u.e.setAttribute(e,r)}}))})),ct(o.r)}return"none"}}function zt(t,r,e){if(0===t)return r;if(1===t)return e;if(r&&e){var i=r.t;if(i===e.t)switch(r.t){case"c":return{t:i,v:z(t,r.v,e.v)};case"g":if(r.r===e.r){var o={t:i,s:Vt(t,r.s,e.s),r:r.r};return r.gt&&e.gt&&(o.gt=function(t,n,r){var e=n.length;if(e!==r.length)return T(t,n,r);for(var i=new Array(e),o=0;o<e;o++)i[o]=q(t,n[o],r[o]);return i}(t,r.gt,e.gt)),r.c?(o.c=C(t,r.c,e.c),o.rd=B(t,r.rd,e.rd)):r.f&&(o.f=C(t,r.f,e.f),o.to=C(t,r.to,e.to)),o}}if("c"===r.t&&"g"===e.t||"c"===e.t&&"g"===r.t){var u="c"===r.t?r:e,a="g"===r.t?n({},r):n({},e),l=a.s.map((function(t){return{c:u.v,o:t.o}}));return a.s="c"===r.t?Vt(t,l,a.s):Vt(t,a.s,l),a}}return T(t,r,e)}function Vt(t,n,r){if(n.length===r.length)return n.map((function(n,e){return Gt(t,n,r[e])}));for(var e=Math.max(n.length,r.length),i=[],o=0;o<e;o++){var u=Gt(t,n[Math.min(o,n.length-1)],r[Math.min(o,r.length-1)]);i.push(u)}return i}function Gt(t,n,r){return{o:L(t,n.o,r.o||0),c:z(t,n.c,r.c||{})}}function Yt(t){return t.replace(/-fill-([0-9]+)$/,(function(t,n){return"-fill-"+(+n+1)}))}var $t={fill:Dt,"fill-opacity":Bt,stroke:Dt,"stroke-opacity":Bt,"stroke-width":qt,"stroke-dashoffset":{f:lt,i:q},"stroke-dasharray":{f:function(t){var n=arguments.length>1&&void 0!==arguments[1]?arguments[1]:" ";return t&&t.length>0&&(t=t.map((function(t){return p(t,4)}))),ft(t,n)},i:function(t,n,r){var e,i,o,u=n.length,a=r.length;if(u!==a)if(0===u)n=V(u=a,0);else if(0===a)a=u,r=V(u,0);else{var l=(o=(e=u)*(i=a)/function(t,n){for(var r;n;)r=n,n=t%n,t=r;return t||1}(e,i))<0?-o:o;n=G(n,Math.floor(l/u)),r=G(r,Math.floor(l/a)),u=a=l}for(var f=[],s=0;s<u;s++)f.push(p(B(t,n[s],r[s])));return f}},opacity:Bt,transform:function(t,n,e,i){if(!(t=function(t,n){if(!t||"object"!==r(t))return null;var e=!1;for(var i in t)t.hasOwnProperty(i)&&(t[i]&&t[i].length?(t[i].forEach((function(t){t.e&&(t.e=n(t.e))})),e=!0):delete t[i]);return e?t:null}(t,i)))return null;var o=function(r,i,o){var u=arguments.length>3&&void 0!==arguments[3]?arguments[3]:null;return t[r]?e(i,t[r],o):n&&n[r]?n[r]:u};return n&&n.a&&t.o?function(n){var r=e(n,t.o,Rt);return Tt.recomposeSelf(r,o("r",n,q,0)+r.a,o("k",n,C),o("s",n,C),o("t",n,C)).toString()}:function(t){return Tt.recomposeSelf(o("o",t,It,null),o("r",t,q,0),o("k",t,C),o("s",t,C),o("t",t,C)).toString()}},r:qt,"#size":vt,"#radius":ht,_:function(t,n){if(Array.isArray(t))for(var r=0;r<t.length;r++)this[t[r]]=n;else this[t]=n}},Ut=function(t){!function(t,n){if("function"!=typeof n&&null!==n)throw new TypeError("Super expression must either be null or a function");t.prototype=Object.create(n&&n.prototype,{constructor:{value:t,writable:!0,configurable:!0}}),n&&l(t,n)}(u,t);var n,r,i=(n=u,r=f(),function(){var t,e=a(n);if(r){var i=a(this).constructor;t=Reflect.construct(e,arguments,i)}else t=e.apply(this,arguments);return c(this,t)});function u(){return e(this,u),i.apply(this,arguments)}return o(u,null,[{key:"build",value:function(t){var n=h(a(u),"build",this).call(this,t,$t);if(!n)return null;n.el,n.options,function(t,n,r){t.play()}(n.player)}}]),u}(at);return Ut.init(),Ut}));
(function(s,i,o,w,a,b){w[o]=w[o]||{};w[o][s]=w[o][s]||[];w[o][s].push(i);})('5c7f360c',{"root":"e4ks8ZdSFJ31","animations":[{"elements":{"e4ks8ZdSFJ325":{"transform":{"data":{"t":{"x":-221.991089,"y":-255.246376}},"keys":{"o":[{"t":0,"v":{"x":212.950072,"y":276.5,"type":"corner"}},{"t":700,"v":{"x":247.314733,"y":292.869458,"type":"corner"}},{"t":1500,"v":{"x":246.587571,"y":325.887534,"type":"cusp","start":{"x":256.254458,"y":332.938426}}},{"t":2000,"v":{"x":246.587573,"y":270.765712,"type":"cusp","start":{"x":256.25446,"y":277.816604}}}],"r":[{"t":0,"v":0},{"t":700,"v":56.317694},{"t":1500,"v":86.769427},{"t":2000,"v":33.787188}]}}},"e4ks8ZdSFJ328":{"transform":{"data":{"t":{"x":-142.514767,"y":-257.808304}},"keys":{"o":[{"t":2000,"v":{"x":154.852268,"y":251.574786,"type":"corner"}},{"t":2500,"v":{"x":154.852268,"y":251.574786,"type":"corner"}}],"r":[{"t":2000,"v":4.518925},{"t":2500,"v":-20.978151}]}}},"e4ks8ZdSFJ331":{"transform":{"data":{"s":{"x":0.942209,"y":1.035752},"t":{"x":-301.500107,"y":-576.999908}},"keys":{"o":[{"t":0,"v":{"x":302.36175,"y":592.999908,"type":"corner"}},{"t":1000,"v":{"x":302.36175,"y":592.999908,"type":"corner"}},{"t":2500,"v":{"x":302.36175,"y":592.999908,"type":"corner"}}],"r":[{"t":0,"v":6.752431},{"t":1000,"v":-1.423756},{"t":2500,"v":12.069508}]}}}},"s":"MLDA1M2M2NmRhZmMwYmQRhY2JmYjRiYWI5NmQR4NTdlN2I3YjdiNzc2SZGFmYjRiZGIwYWViZQlRiNGJhSGI5NmQ4NTDdjSjc3NmRiNGJmYjBFBYmRhY2JmQ2I0YmFiCOWJlNmQ4NTdiNzdUNWmRiMWI0YjdiNzZkODSU3Yzc3NmRhY2I3YmZBiMGJkYjlhY2JmYjA2TZDg1YjFhY2I3YmViMSDc3NmRiZWJiYjBiMEFhhZjZkODU3Y1ZjOA|G"}],"options":"MJDAxMDg4MmY4MEQ4MTIZlN2ZVODEyZjQ3MmYR3OTdjNmVENzEyZjhhV"},'__SVGATOR_PLAYER__',window)]]></script></svg>