<?xml version="1.0" encoding="utf-8"?>
<!DOCTYPE svg PUBLIC "-//W3C//DTD SVG 1.1//EN" "http://www.w3.org/Graphics/SVG/1.1/DTD/svg11.dtd">
<svg version="1.1" id="Layer_1" xmlns="http://www.w3.org/2000/svg" xmlns:xlink="http://www.w3.org/1999/xlink" x="0px" y="0px"
	 viewBox="-0.0469 74 866.0469 803.0469" enable-background="new -0.0469 74 866.0469 803.0469" xml:space="preserve">
<g id="_x23_ffffffff">
</g>
<g id="_x23_000000ff">
	<path stroke="#000000" stroke-width="0.0938" d="M208.19,97.16c4.82-1.64,9.95-1.82,14.97-2.42c14.2-1.25,28.66-1.84,42.75,0.75
		c7.87,1.77,15.6,4.1,23.34,6.39c6.37,1.81,12.4,4.68,18.84,6.31c1.19,0.56,3.24,0.31,3.61,1.9c-3.59-1.16-7.65,0.28-11.36-1.04
		c5.03,5.51,11.98,8.45,18.16,12.39c5.23,2.95,9.07,7.66,13.62,11.47c8.96,6.58,15.13,16.09,23.4,23.41
		c4.5,3.11,9.72,5.18,15.07,6.29c2.35,0.49,5.05,1.6,5.58,4.23c-0.58,0.34-1.75,1.02-2.34,1.36c0.57,1.82,1.98,3.09,3.44,4.24
		c-2.14,0.38-4.27,1.45-5.1,3.59c-2.37,5.78-3.01,12.09-5.07,17.97c-2.27,1.32-4.91,2.49-6.28,4.87
		c-2.46,18.52-5.77,36.93-9.33,55.28c-1.23,5.18-1.62,10.86-5.01,15.22c-1.12,0.45-2.53,0.58-3.23,1.7c-2.2,3.04-3.72,6.51-5.2,9.94
		c-4.03,8-1.31,17.88-6.64,25.43c-3.66,5.93-11.82,4.94-16.56,9.55c-0.77,6.9-1.52,13.86-3.5,20.54c-1.45,4.97-6.2,7.7-9.38,11.46
		c-10.1,10.25-16.43,23.42-25.34,34.61c-1.06,1.4-2.94,1.73-4.58,1.44c-8.69-1.02-16.47-5.68-25.1-6.95
		c-2.35-0.61-2.55,2.28-3.23,3.78c-2.19,7.6-4.42,15.26-5.67,23.07c1.5,7.02,8.01,11.39,13.47,15.34
		c13.86,8.68,27.77,17.35,40.55,27.58c3.53,2.81,6.58,6.21,10.46,8.57c11.23,7.13,23.14,13.13,35.13,18.86
		c8.4,4.97,15.63,11.69,22.35,18.72c11.82,12.79,21.53,28.43,23.87,45.96c1.86,18.67,8.52,36.4,15.35,53.73
		c7.55,18.59,16.1,36.77,25.28,54.62c3.42,6.23,6.03,12.85,8.97,19.31c9.66,21.8,19.36,43.59,29,65.4c3.02-3.72,5.96-7.5,8.93-11.26
		c-1.52-3.17-3.54-6.92-1.92-10.43c2.25-3.09,7-4.9,6.82-9.33c0.07-4.37,1.63-8.88,5.27-11.54c0.76-9.7,1.63-20.22,7.6-28.3199
		c8.03-9.53,19.38-15.26,29.22-22.63c7.46-7.36,12.02-17.25,19.98-24.16c3.48-2.94,9.39-4.22,12.9-0.65
		c4,4.11,2.39,10.38,1.54,15.39c6-7.7,11.92-15.47,17.82-23.2599c6.56-9.51,11.95-19.9,19.51-28.71c2.67-3.13,7.21-1.84,10.41-0.38
		c6.65-9.75,13.37-19.46,20-29.22c2.31-3.9901,6.15-6.91,10.55-8.2401c10.95-3.52,22.33,0.04,33.07,2.57
		c41.77,8.95,83.89,16.15,125.95,23.59c1.74,0.56,2.94-1.17,4.1-2.14c5.49-5.75,9.62-12.59,13.82-19.28
		c7.15-11.76,13.73-23.8701,19.89-36.17c1.56-2.99,0.28-6.49-2.02-8.68c-5.09,6.67-10.13,13.6-16.86,18.74
		c-1.72,1.12-4.18,3.06-6.11,1.31c-74.48-51.07-148.99-102.1-223.48-153.15c3.9-9.93,9.86-18.89,16.03-27.53
		c5.89-7.97,11.73-16.06,18.68-23.15c74.46,50.98,148.87,102.02,223.33,152.99c2.5,1.21,1.91,4.38,1.5,6.59
		c-1.79,7.37-6.04,13.8-10.15,20.07c4.51,3.54,6.29,10.18,3.54,15.35c-7.9901,15.7-16.39,31.25-26.19,45.91
		c-3.4,4.78-6.76,9.82-11.61,13.26c-1.96,1.61-4.53,1.14-6.79,0.68c-46.2-8.37-92.59-15.91-138.34-26.53
		c-6.59-1.14-13.87-1.52-19.92,1.79c-2.62,1.31-4.13,3.9-5.71,6.23c-6.29,9.27-12.71,18.46-18.96,27.76
		c2.1,2.87,5.16,6.54,2.81,10.22c-7.55,12.76-18.47,23.14-26.05,35.89c-6.66,10.08-13.28,20.18-19.92,30.27
		c1.5601,6.09,4.2401,11.86,5.25,18.08c0.8701,5.57-1.37,10.92-3.11,16.09c-2.87,9.41-6.54,18.71-11.89,27
		c-10.59,12.61-22.96,23.59-34.8199,34.95c-5.25,7.72-9.08,16.32-13.8,24.37c-9.58,17.07-20.31,33.8-34.45,47.49
		c-9.52,9.32-21.29,15.83-32.86,22.23c-7.93,3.97-16.09,8.45-25.12,9.02c-14.5-13.49-29.03-26.95-43.59-40.37
		c-5.49-3.35-12.39-5.62-15.52-11.74c-2.89-6.2-6.84-12.33-12.92-15.8c-9.24-5.78-19.04-11.74-24.84-21.28
		c-3-4.69-8.27-8.26-13.99-8.01c-5.64,0.23-11.29,0.1201-16.94,0.14c0.64,9.67,1.37,19.47-0.29,29.08c-0.49,2.9-0.38,5.86-0.21,8.79
		c1.21,19.09,4.71,37.99,5.38,57.12c-0.4,7.98-0.25,15.97,0.05,23.96H0V372.38c10.94-0.88,21.97-3.01,32.93-1.24
		c4.76-1.28,9.26-3.37,13.74-5.4c5.76-2.57,10.08-7.92,16.41-9.29c3.76-0.22,7.42,0.84,11.14,1.16c2.78-0.7,5.25-2.28,7.78-3.58
		c6.26-3.52,12.7-7.92,15.44-14.87c10.56-20.36,22.46-39.98,33.81-59.89c-0.22-1.74-0.42-3.47-0.61-5.2
		c1.79-2.22,4.41-4.17,5.03-7.06c-0.84-7.38-3.11-14.6-3.07-22.09c-0.66-27.5,0.97-55.48,9.22-81.87
		c3.81-11.73,9.24-23.22,17.8-32.25c-0.2-1.59-0.39-3.17-0.58-4.76c0.75,0.07,2.25,0.2,3,0.27c3.53-3.59,7.53-6.88,10.05-11.32
		c0.57-1.62,2.51-1.1,3.81-1.39c6.21-4.38,12.21-9.07,18.73-12.97C198.74,98.14,203.73,98.56,208.19,97.16z"/>
</g>
</svg>
