<svg id="eESv6y9zBrQ1" xmlns="http://www.w3.org/2000/svg" xmlns:xlink="http://www.w3.org/1999/xlink" viewBox="0 0 512 512" shape-rendering="geometricPrecision" text-rendering="geometricPrecision"><path id="eESv6y9zBrQ2" d="M246.753,32c-2.685,2.1481-2.756,3.4074-2.756,35.6296c0,30.5926.071,31.6297,1.413,33.0374c1.837,1.926,4.946,1.926,7.349-.074l1.837-1.4819v-28.5185-28.4445h21.904h21.904v52.8889v52.815l1.767,1.852c2.402,2.518,4.239,2.815,17.947,2.815h11.73L303.35,180.296c-14.555,15.26-26.709,27.704-27.062,27.556-.989-.296-53.489-54.667-53.489-55.408c0-.37,5.936-.666,13.991-.666h13.99l1.908-2.074l1.908-2.074v-13.852c0-12.889-.071-13.926-1.413-15.334-2.191-2.296-6.006-2.222-7.914.149-1.06,1.259-1.272,3.037-1.272,11.777v10.297h-16.252c-18.724,0-19.855.296-21.268,5.185-.636,2.222-.636,3.407,0,5.037c1.272,3.185,65.713,70.296,68.115,70.889c1.06.296,2.756.296,3.886,0c2.332-.593,66.773-67.704,68.045-70.889.636-1.63.636-2.815,0-5.037-1.413-4.889-2.544-5.185-21.268-5.185h-16.252v-52.2966c0-53.7037,0-54.1482-2.756-56.3704-1.625-1.3333-57.869-1.3333-59.494,0Z" transform="matrix(1 0 0 1.045413-1.855797-228.550714)" fill="#c8ea73"/><g transform="translate(2.441583 30.519791)"><path d="M69.409,233.173c-4.4471,2.022-6.8486,5.515-7.2933,10.387-.4448,4.413-.3558,4.504,14.7646,28.405l15.2094,23.992v89.81v89.901l2.5794,2.666L97.2484,481h177.1756h177.176l2.58-2.666l2.579-2.666v-51.109-51.018l-2.401-1.931c-2.935-2.298-6.76-1.93-9.606,1.012-1.69,1.746-1.779,3.217-2.046,48.168l-.267,46.421h-80.405-80.494v-83.65-83.651h80.405h80.494l.267,23.992.267,23.992l2.49,2.206c3.024,2.666,5.871,2.85,8.984.276l2.312-1.839v-26.382-26.382l6.849-10.571C482.553,255.878,487,248.34,487,244.755c0-4.32-3.024-9.1-7.115-11.306-2.936-1.471-8.539-1.563-87.788-1.379-83.696.275-84.674.275-87.165,2.114-1.334,1.103-8.716,11.49-16.277,23.257-7.56,11.674-13.964,21.234-14.231,21.234-.266,0-6.67-9.56-14.231-21.234-7.56-11.767-14.942-22.154-16.276-23.257-2.491-1.839-3.469-1.839-87.165-2.022-69.1984-.184-85.1194,0-87.343,1.011Zm179.489,32.541c6.67,10.479,12.185,19.396,12.185,19.764c0,.367-26.416.643-58.614.643h-58.703l-1.779,2.39c-1.067,1.379-1.868,3.034-1.868,3.677c0,2.39,2.046,5.699,4.181,6.71c1.512.736,20.19,1.012,62.527,1.012h60.482v83.651v83.65h-80.939-80.939v-83.65-83.651h6.137c7.472,0,11.029-2.298,11.029-7.17c0-5.332-2.134-6.619-11.384-6.619h-8.183L91.9118,268.839c-6.0482-9.468-11.8295-18.293-12.63-19.763l-1.601-2.482h79.4272h79.515l12.275,19.12Zm220.58-16.455c-.889,1.471-6.404,10.112-12.274,19.305l-10.673,16.638h-79.338-79.338l12.185-19.304l12.186-19.304h79.426h79.516l-1.69,2.665Z" fill="#d8a595"/><g mask="url(#eESv6y9zBrQ7)"><path d="M62.1157,243.56l30.8716,2.818-.0133.146-.0146.145-30.8437-3.109Zm14.7646,28.405L50.698,288.562l-.0076-.012-.0076-.012l26.1975-16.573Zm15.2094,23.992l26.1823-16.598l4.818,7.6v8.998h-31.0003Zm0,179.711L69.8112,497.225l-8.7215-9.014v-12.543h31ZM97.2484,481v31h-13.1408L74.97,502.556L97.2484,481ZM451.6,481l22.279,21.556L464.741,512h-13.141v-31Zm5.159-5.332h31v12.543l-8.721,9.014-22.279-21.557Zm0-102.127l19.422-24.162l11.578,9.307v14.855h-31Zm-2.401-1.931l19.111-24.408.156.122.155.125-19.422,24.161Zm-11.652,49.18l-30.999-.178v-.006l30.999.184Zm-.267,46.421l31,.179-.177,30.821h-30.823v-31Zm-160.899,0v31h-31v-31h31Zm0-167.301h-31v-31h31v31Zm160.899,0v-31h30.657l.341,30.655-30.998.345Zm.534,47.984l-20.556,23.204-10.289-9.114-.153-13.745l30.998-.345Zm2.49,2.206l-20.499,23.255-.028-.025-.029-.025L445.463,350.1Zm8.984.276l-19.754-23.891.229-.19.233-.185l19.292,24.266Zm2.312-1.839h31v14.958l-11.708,9.308-19.292-24.266Zm0-52.764h-31v-9.164l4.983-7.691l26.017,16.855Zm6.849-10.571l26.038,16.822-.01.017-.011.016-26.017-16.855Zm16.277-51.753l13.887-27.716.416.209.41.221-14.713,27.286Zm-87.788-1.379l-.102-31h.015.015l.072,31Zm-87.165,2.114l-19.753-23.891.656-.543.686-.506l18.411,24.94Zm-16.277,23.257l26.081,16.757-.03.047-.03.046-26.021-16.85Zm-28.462,0l-26.02,16.85-.03-.046-.03-.047l26.08-16.757Zm-16.276-23.257l18.411-24.94.686.506.656.543-19.753,23.891Zm-87.165-2.022l-.068,31-.007-.001h-.008l.083-30.999Zm92.146,33.552l26.087-16.747.032.05.032.05-26.151,16.647ZM143.766,286.121l-24.868-18.509l9.297-12.491h15.571v31Zm-1.779,2.39l24.868,18.509-.175.235-.179.231-24.514-18.975Zm2.313,10.387l13.271-28.015.144.068.143.07L144.3,298.898Zm123.009,1.012v-31h31v31h-31Zm0,167.301h31v31h-31v-31Zm-161.878,0v31h-30.9997v-31h30.9997Zm0-167.301h-30.9997v-31h30.9997v31Zm-2.401-13.789v31h-16.9179l-9.1532-14.228L103.03,286.121ZM91.9118,268.839L65.841,285.612l-.0271-.042-.0268-.042l26.1247-16.689Zm-12.63-19.763l26.0502-16.804.626.97.552,1.014-27.2282,14.82Zm-1.601-2.482L51.6303,263.398l-30.836-47.804h56.8865v31Zm158.9422,0v-31h16.938l9.15,14.253-26.088,16.747Zm232.855,2.665l-26.527-16.041.17-.28.175-.276l26.182,16.597Zm-12.274,19.305l26.127,16.684-.017.027-.017.027-26.093-16.738Zm-10.673,16.638l26.092,16.738-9.148,14.262h-16.944v-31Zm-158.676,0v31h-56.228l30.014-47.547l26.214,16.547Zm24.371-38.608l-26.215-16.548l9.123-14.452h17.092v31Zm158.942,0v-31h56.356L497.35,263.191l-26.182-16.597ZM82.2416,261.392c2.1165-.962,5.0438-2.92,7.4345-6.343c2.3633-3.384,3.1276-6.659,3.3112-8.671L31.244,240.742c1.4231-15.59,10.4068-29.001,25.3325-35.789l25.6651,56.439Zm10.7178-14.723c-.1373,1.362.3471-1.873-.3495-5.709-.6385-3.516-1.8435-5.572-1.4591-4.834.352.675,1.2321,2.216,3.3424,5.626c2.0257,3.274,4.7633,7.599,8.5848,13.639L50.6828,288.538c-7.0504-11.144-11.8786-18.704-14.5115-23.755-1.4723-2.824-3.5612-7.224-4.5638-12.745-1.0607-5.842-.4207-10.742-.3356-11.587l61.6875,6.218Zm10.1036,8.698l15.209,23.992-52.3646,33.196L50.698,288.562l52.365-33.195Zm20.027,40.59v89.81h-62.0003v-89.81h62.0003Zm0,89.81v89.901h-62.0003v-89.901h62.0003Zm-8.722,68.345l2.58,2.666L72.3906,499.89l-2.5794-2.665l44.5568-43.113Zm2.58,2.666l2.579,2.666L74.97,502.556l-2.5794-2.666l44.5574-43.112ZM97.2484,450h177.1756v62h-177.1756v-62Zm177.1756,0h177.176v62h-177.176v-62Zm154.898,9.444l2.579-2.666l44.557,43.112-2.579,2.666-44.557-43.112Zm2.579-2.666l2.58-2.666l44.557,43.113-2.58,2.665-44.557-43.112Zm-6.142,18.89v-51.109h62v51.109h-62Zm0-51.109v-51.018h62v51.018h-62Zm11.578-26.857l-2.401-1.93l38.844-48.323l2.401,1.93-38.844,48.323Zm-2.09-1.683c4.555,3.566,10.78,5.654,17.44,4.97c6.493-.667,11.36-3.728,14.343-6.811l-44.557-43.113c12.56-12.98,34.127-17.07,50.996-3.863l-38.222,48.817Zm31.783-1.841c.594-.614,2.504-2.629,4.231-5.725c1.642-2.943,2.376-5.505,2.704-6.93.462-2.003.337-2.847.202.313-.236,5.47-.326,16.297-.462,39.138l-61.998-.368c.131-22.11.218-34.494.517-41.434.131-3.044.362-7.393,1.324-11.568.578-2.511,1.599-5.826,3.57-9.359c2.057-3.686,4.339-6.129,5.355-7.18l44.557,43.113Zm6.676,26.79l-.267,46.422-61.999-.357.267-46.421l61.999.356Zm-31.267,77.243h-80.405v-62h80.405v62Zm-80.405,0h-80.494v-62h80.494v62Zm-111.494-31v-83.65h62v83.65h-62Zm0-83.65v-83.651h62v83.651h-62Zm31-114.651h80.405v62h-80.405v-62Zm80.405,0h80.494v62h-80.494v-62Zm111.492,30.655l.267,23.992-61.996.69-.267-23.993l61.996-.689Zm.267,23.992l.267,23.992-61.996.69-.267-23.992l61.996-.69Zm-10.175,1.132l2.49,2.207-41.112,46.409-2.49-2.207l41.112-46.409Zm2.434,2.157c-1.591-1.403-6.678-5.303-14.838-5.62-8.477-.329-14.205,3.417-16.432,5.259L474.2,374.267c-5.34,4.415-14.048,9.357-25.482,8.913-11.117-.432-19.139-5.757-23.754-9.825l40.999-46.509Zm-30.808-.736l2.313-1.839l38.583,48.532-2.313,1.839-38.583-48.532Zm-9.396,22.427v-26.382h62v26.382h-62Zm0-26.382v-26.382h62v26.382h-62Zm4.983-43.237l6.849-10.572l52.034,33.711-6.849,10.571-52.034-33.71Zm6.827-10.539c9.572-14.816,14.99-23.377,18.025-28.609c1.542-2.657,1.941-3.564,1.907-3.484-.046.108-.383.899-.72,2.19-.349,1.333-.781,3.507-.781,6.279h62c0,7.057-2.137,12.735-3.483,15.886-1.46,3.419-3.356,6.901-5.295,10.242-3.924,6.764-10.203,16.633-19.576,31.141l-52.077-33.645ZM456,244.755c0,4.81,1.556,8.187,2.751,10.084c1.244,1.973,3.241,4.181,6.42,5.895l29.427-54.571C507.672,213.213,518,227.892,518,244.755h-62Zm9.997,16.409c4.092,2.05,7.453,2.314,7.063,2.276-.785-.077-3.102-.213-8.94-.305-11.318-.178-32.167-.158-71.951-.065l-.144-62c39.465-.092,61.042-.117,73.072.072c5.836.092,10.423.243,13.99.592c3.963.387,9.125,1.213,14.685,3.999l-27.775,55.431Zm-73.798,1.905c-42.09.139-62.791.209-73.393.463-5.711.137-6.816.308-6.368.241.487-.073,2.597-.408,5.326-1.532c3.152-1.298,5.313-2.92,5.58-3.117l-36.823-49.88c.889-.657,3.625-2.681,7.634-4.332c3.587-1.477,6.835-2.115,9.072-2.451c3.948-.593,8.785-.784,14.092-.911c11.434-.275,33.07-.343,74.676-.48l.204,61.999Zm-67.513-4.994c1.494-1.235,2.477-2.304,2.674-2.516.35-.379.565-.636.601-.679.075-.09-.039.043-.392.507-.68.895-1.723,2.326-3.083,4.259-2.691,3.826-6.186,9.005-9.75,14.552l-52.161-33.515c3.996-6.219,7.972-12.117,11.196-16.701c1.598-2.273,3.123-4.382,4.438-6.112.645-.849,1.386-1.8,2.15-2.715.244-.293,2.166-2.669,4.82-4.862l39.507,47.782Zm-10.01,16.216c-3.84,5.93-7.424,11.38-10.118,15.401-1.33,1.985-2.533,3.755-3.475,5.099-.439.626-1.004,1.423-1.575,2.176-.23.304-.817,1.074-1.577,1.947-.305.351-1.232,1.411-2.545,2.612-.605.553-2.033,1.824-4.065,3.144-.717.465-7.269,5.005-16.897,5.005v-62c-5.477,0-9.65,1.452-11.775,2.325-2.318.952-4.059,1.999-5.087,2.667-2.018,1.31-3.428,2.567-4.013,3.102-1.273,1.164-2.148,2.169-2.39,2.447-.633.727-1.047,1.281-1.062,1.3-.14.185-.103.143.215-.309.57-.814,1.491-2.163,2.74-4.028c2.464-3.677,5.863-8.844,9.583-14.589l52.041,33.701Zm-40.252,35.384c-9.627,0-16.179-4.54-16.896-5.005-2.033-1.32-3.46-2.591-4.065-3.144-1.313-1.201-2.24-2.261-2.545-2.612-.76-.873-1.347-1.643-1.577-1.947-.571-.753-1.137-1.55-1.575-2.176-.942-1.344-2.145-3.114-3.475-5.099-2.694-4.021-6.278-9.471-10.118-15.401l52.041-33.701c3.72,5.745,7.119,10.912,9.583,14.589c1.249,1.865,2.17,3.214,2.74,4.028.317.452.355.494.215.309-.015-.019-.429-.573-1.062-1.3-.242-.278-1.117-1.283-2.39-2.447-.585-.535-1.995-1.792-4.013-3.102-1.028-.668-2.77-1.715-5.088-2.667-2.124-.873-6.297-2.325-11.775-2.325v62Zm-40.311-35.477c-3.564-5.547-7.06-10.726-9.751-14.552-1.359-1.933-2.402-3.364-3.082-4.259-.354-.464-.467-.597-.392-.507.036.043.251.3.601.679.197.212,1.18,1.281,2.674,2.516l39.507-47.782c2.653,2.193,4.576,4.569,4.82,4.862.764.915,1.505,1.866,2.15,2.715c1.315,1.73,2.84,3.839,4.438,6.112c3.224,4.584,7.2,10.482,11.196,16.701l-52.161,33.515Zm-8.608-15.074c.267.197,2.432,1.822,5.59,3.121c2.735,1.126,4.851,1.46,5.341,1.533.452.067-.65-.103-6.361-.234-10.6-.243-31.301-.29-73.391-.382l.136-62c41.605.091,63.242.136,74.677.398c5.307.122,10.148.308,14.1.898c2.24.335,5.494.972,9.086,2.45c4.016,1.652,6.756,3.679,7.645,4.336l-36.823,49.88Zm-68.836,4.037c-34.652-.092-55.7-.09-68.3453.056-6.3882.074-10.1944.181-12.3814.3-1.1277.061-1.3271.1-.9987.058.174-.023.8349-.111,1.7814-.321.7501-.167,2.8888-.667,5.5166-1.862L56.5765,204.953c4.8885-2.223,9.4854-2.746,10.4044-2.865c1.895-.245,3.8448-.385,5.6036-.48c3.586-.195,8.5019-.311,15.0217-.387c13.1708-.152,34.6818-.151,69.2278-.059l-.165,61.999Zm118.38-14.094c3.384,5.317,6.512,10.294,8.823,14.04c1.142,1.85,2.162,3.524,2.934,4.831.364.617.812,1.384,1.224,2.137.179.328.56,1.03.968,1.886.184.386.604,1.28,1.045,2.439.217.573.598,1.619.96,2.96.247.913,1.08,4.027,1.08,8.118h-62c0,2.278.253,4.111.445,5.23.204,1.188.443,2.162.626,2.841.358,1.32.73,2.343.937,2.888.419,1.102.807,1.924.95,2.223.324.679.58,1.142.595,1.17.084.154.049.083-.208-.352-.47-.796-1.246-2.074-2.317-3.81-2.113-3.424-5.078-8.145-8.365-13.307l52.303-33.294Zm17.034,36.411c0,12.509-7.125,20.254-10.395,23.165-3.423,3.046-6.707,4.59-8.031,5.178-2.883,1.282-5.314,1.817-5.937,1.955-1.742.386-3.17.541-3.541.582-1.087.12-2.084.178-2.61.207-1.237.067-2.749.117-4.31.158-3.217.083-7.711.154-13.074.212-10.774.117-25.546.186-41.716.186v-62c16.027,0,30.563-.069,41.046-.182c5.265-.057,9.388-.124,12.131-.195c1.419-.037,2.221-.069,2.554-.087.26-.015-.138,0-.822.075-.17.019-1.446.152-3.085.515-.573.127-2.965.65-5.823,1.921-1.311.583-4.586,2.121-8.002,5.162-3.264,2.905-10.385,10.644-10.385,23.148h62Zm-89.614,31.643h-58.703v-62h58.703v62ZM168.634,304.63l-1.779,2.39-49.736-37.018l1.779-2.39l49.736,37.018Zm-2.133,2.856c.733-.946,1.332-1.903,1.874-2.987.273-.544.738-1.533,1.206-2.897.238-.691.567-1.743.858-3.071.262-1.197.68-3.451.68-6.343h-62c0-5.371,1.402-9.496,1.822-10.719.652-1.898,1.384-3.507,1.99-4.718c1.209-2.417,2.742-4.89,4.542-7.215l49.028,37.95Zm4.618-15.298c0-3.625-.732-6.404-1.297-8.065-.601-1.768-1.339-3.228-2.082-4.424-.741-1.193-1.745-2.537-3.123-3.909-1.29-1.285-3.586-3.268-7.046-4.907l-26.542,56.031c-8.377-3.968-13.385-10.363-15.951-14.492-2.603-4.19-5.959-11.305-5.959-20.234h62Zm-13.261-21.167c-3.98-1.936-7.424-2.471-7.455-2.477-.863-.159-1.434-.216-1.465-.22-.109-.011.246.026,1.34.08c2.097.103,5.482.201,10.467.28c9.884.156,24.925.226,46.082.226v62c-21.18,0-36.647-.069-47.064-.234-5.166-.082-9.38-.192-12.534-.347-1.531-.075-3.214-.18-4.799-.347-.769-.081-1.938-.22-3.262-.464-.491-.091-4.258-.714-8.427-2.742l27.117-55.755Zm48.969-2.111h60.482v62h-60.482v-62Zm91.482,31v83.651h-62v-83.651h62Zm0,83.651v83.65h-62v-83.65h62Zm-31,114.65h-80.939v-62h80.939v62Zm-80.939,0h-80.939v-62h80.939v62Zm-111.9387-31v-83.65h61.9997v83.65h-61.9997Zm0-83.65v-83.651h61.9997v83.651h-61.9997ZM105.431,268.91h6.137v62h-6.137v-62Zm6.137,0c1.67,0-2.854-.466-8.561,3.239-3.3523,2.176-6.5996,5.483-8.8095,9.903-2.1251,4.25-2.6001,8.138-2.6001,10.688h61.9996c0,11.292-4.909,23.673-16.834,31.414-9.354,6.072-19.393,6.756-25.195,6.756v-62ZM91.5974,292.74c0,.233-.0592,3.688,1.6993,8.129c2.193,5.538,6.2564,10.298,11.4293,13.323c4.185,2.447,7.632,2.882,7.994,2.931.56.076.319-.002-1.507-.002v-62c2.798,0,6.293.083,9.855.567c3.364.457,9.079,1.547,14.954,4.982c6.862,4.013,12.038,10.094,14.92,17.373c2.448,6.182,2.655,11.797,2.655,14.697h-61.9996Zm19.6156,24.381h-8.183v-62h8.183v62ZM76.9589,302.893L65.841,285.612l52.142-33.545l11.118,17.282-52.1421,33.544ZM65.7871,285.528c-2.9829-4.67-5.8789-9.148-8.221-12.785-1.1505-1.786-2.1925-3.409-3.0089-4.697-.5384-.85-1.6989-2.672-2.5038-4.151L106.51,234.256c-.404-.743-.542-.911.418.603.681,1.076,1.613,2.527,2.764,4.315c2.26,3.51,5.279,8.178,8.345,12.977L65.7871,285.528ZM53.2313,265.88l-1.601-2.482L103.731,229.79l1.601,2.482L53.2313,265.88Zm24.4495-50.286h79.4272v62h-79.4272v-62Zm79.4272,0h79.515v62h-79.515v-62Zm105.603,14.253l12.274,19.12-52.175,33.494-12.274-19.121l52.175-33.493Zm233.294,35.454c-1.149,1.9-7.013,11.082-12.674,19.947l-52.254-33.369c2.937-4.599,5.771-9.039,7.981-12.51c1.106-1.737,2.042-3.212,2.751-4.332.355-.562.64-1.015.854-1.357.243-.388.314-.504.288-.462l53.054,32.083Zm-12.708,20.001L472.623,301.94l-52.185-33.476l10.673-16.639l52.186,33.477Zm-36.766,30.9h-79.338v-62h79.338v62Zm-79.338,0h-79.338v-62h79.338v62ZM261.641,268.655l12.185-19.305l52.429,33.095-12.186,19.304-52.428-33.094Zm12.185-19.305l12.185-19.304l52.429,33.095-12.185,19.304-52.429-33.095Zm38.4-33.756h79.426v62h-79.426v-62Zm79.426,0h79.516v62h-79.516v-62ZM497.35,263.191l-1.69,2.666-52.364-33.195l1.69-2.666l52.364,33.195Z" fill="#d8a595"/><mask id="eESv6y9zBrQ7" mask-type="luminance"><path d="M69.409,233.173c-4.4471,2.022-6.8486,5.515-7.2933,10.387-.4448,4.413-.3558,4.504,14.7646,28.405l15.2094,23.992v89.81v89.901l2.5794,2.666L97.2484,481h177.1756h177.176l2.58-2.666l2.579-2.666v-51.109-51.018l-2.401-1.931c-2.935-2.298-6.76-1.93-9.606,1.012-1.69,1.746-1.779,3.217-2.046,48.168l-.267,46.421h-80.405-80.494v-83.65-83.651h80.405h80.494l.267,23.992.267,23.992l2.49,2.206c3.024,2.666,5.871,2.85,8.984.276l2.312-1.839v-26.382-26.382l6.849-10.571C482.553,255.878,487,248.34,487,244.755c0-4.32-3.024-9.1-7.115-11.306-2.936-1.471-8.539-1.563-87.788-1.379-83.696.275-84.674.275-87.165,2.114-1.334,1.103-8.716,11.49-16.277,23.257-7.56,11.674-13.964,21.234-14.231,21.234-.266,0-6.67-9.56-14.231-21.234-7.56-11.767-14.942-22.154-16.276-23.257-2.491-1.839-3.469-1.839-87.165-2.022-69.1984-.184-85.1194,0-87.343,1.011Zm179.489,32.541c6.67,10.479,12.185,19.396,12.185,19.764c0,.367-26.416.643-58.614.643h-58.703l-1.779,2.39c-1.067,1.379-1.868,3.034-1.868,3.677c0,2.39,2.046,5.699,4.181,6.71c1.512.736,20.19,1.012,62.527,1.012h60.482v83.651v83.65h-80.939-80.939v-83.65-83.651h6.137c7.472,0,11.029-2.298,11.029-7.17c0-5.332-2.134-6.619-11.384-6.619h-8.183L91.9118,268.839c-6.0482-9.468-11.8295-18.293-12.63-19.763l-1.601-2.482h79.4272h79.515l12.275,19.12Zm220.58-16.455c-.889,1.471-6.404,10.112-12.274,19.305l-10.673,16.638h-79.338-79.338l12.185-19.304l12.186-19.304h79.426h79.516l-1.69,2.665Z" transform="translate(0 0.000001)" fill="#fff"/></mask></g></g><path d="M152.903,403.085L150,406.17v18.83v18.83l2.903,3.085L155.806,450h30.631h30.63l3.204-3.085l3.303-3.085.3-15.745c.401-18.617,0-21.596-3.503-25.319L217.768,400h-30.931-31.031l-2.903,3.085ZM208.058,425v9.043h-21.521-21.522v-9.043-9.043h21.522h21.521v9.043Z" transform="translate(0 29.5)" fill="#756e78"/><path d="M331.8,405.6c-4.7,2.5-5.8,6-5.8,18.9c0,19,1.5,20.5,20.8,20.5h13.4l3.4-3.4l3.4-3.4v-12.6c0-19.9-1.7-21.6-20.7-21.6-8.5.1-12.6.5-14.5,1.6Z" transform="translate(1.220792 34.5)" fill="#756e78"/><path d="M393.3,406c-1.7,1-3.7,2.8-4.2,3.9-.6,1.1-1.1,7.7-1.1,15.1v13.2l3.4,3.4l3.4,3.4h12.6c19.8,0,21.6-1.7,21.6-20.5c0-18.6-1.9-20.5-20.7-20.5-9.9,0-12.3.3-15,2Z" transform="translate(3.662375 34.5)" fill="#756e78"/><script><![CDATA[!function(t,n){"object"==typeof exports&&"undefined"!=typeof module?module.exports=n():"function"==typeof define&&define.amd?define(n):((t="undefined"!=typeof globalThis?globalThis:t||self).__SVGATOR_PLAYER__=t.__SVGATOR_PLAYER__||{},t.__SVGATOR_PLAYER__["5c7f360c"]=n())}(this,(function(){"use strict";function t(t,n){var r=Object.keys(t);if(Object.getOwnPropertySymbols){var e=Object.getOwnPropertySymbols(t);n&&(e=e.filter((function(n){return Object.getOwnPropertyDescriptor(t,n).enumerable}))),r.push.apply(r,e)}return r}function n(n){for(var r=1;r<arguments.length;r++){var e=null!=arguments[r]?arguments[r]:{};r%2?t(Object(e),!0).forEach((function(t){u(n,t,e[t])})):Object.getOwnPropertyDescriptors?Object.defineProperties(n,Object.getOwnPropertyDescriptors(e)):t(Object(e)).forEach((function(t){Object.defineProperty(n,t,Object.getOwnPropertyDescriptor(e,t))}))}return n}function r(t){return(r="function"==typeof Symbol&&"symbol"==typeof Symbol.iterator?function(t){return typeof t}:function(t){return t&&"function"==typeof Symbol&&t.constructor===Symbol&&t!==Symbol.prototype?"symbol":typeof t})(t)}function e(t,n){if(!(t instanceof n))throw new TypeError("Cannot call a class as a function")}function i(t,n){for(var r=0;r<n.length;r++){var e=n[r];e.enumerable=e.enumerable||!1,e.configurable=!0,"value"in e&&(e.writable=!0),Object.defineProperty(t,e.key,e)}}function o(t,n,r){return n&&i(t.prototype,n),r&&i(t,r),t}function u(t,n,r){return n in t?Object.defineProperty(t,n,{value:r,enumerable:!0,configurable:!0,writable:!0}):t[n]=r,t}function a(t){return(a=Object.setPrototypeOf?Object.getPrototypeOf:function(t){return t.__proto__||Object.getPrototypeOf(t)})(t)}function l(t,n){return(l=Object.setPrototypeOf||function(t,n){return t.__proto__=n,t})(t,n)}function f(){if("undefined"==typeof Reflect||!Reflect.construct)return!1;if(Reflect.construct.sham)return!1;if("function"==typeof Proxy)return!0;try{return Boolean.prototype.valueOf.call(Reflect.construct(Boolean,[],(function(){}))),!0}catch(t){return!1}}function s(t,n,r){return(s=f()?Reflect.construct:function(t,n,r){var e=[null];e.push.apply(e,n);var i=new(Function.bind.apply(t,e));return r&&l(i,r.prototype),i}).apply(null,arguments)}function c(t,n){if(n&&("object"==typeof n||"function"==typeof n))return n;if(void 0!==n)throw new TypeError("Derived constructors may only return object or undefined");return function(t){if(void 0===t)throw new ReferenceError("this hasn't been initialised - super() hasn't been called");return t}(t)}function h(t,n,r){return(h="undefined"!=typeof Reflect&&Reflect.get?Reflect.get:function(t,n,r){var e=function(t,n){for(;!Object.prototype.hasOwnProperty.call(t,n)&&null!==(t=a(t)););return t}(t,n);if(e){var i=Object.getOwnPropertyDescriptor(e,n);return i.get?i.get.call(r):i.value}})(t,n,r||t)}function v(t){return function(t){if(Array.isArray(t))return y(t)}(t)||function(t){if("undefined"!=typeof Symbol&&null!=t[Symbol.iterator]||null!=t["@@iterator"])return Array.from(t)}(t)||function(t,n){if(!t)return;if("string"==typeof t)return y(t,n);var r=Object.prototype.toString.call(t).slice(8,-1);"Object"===r&&t.constructor&&(r=t.constructor.name);if("Map"===r||"Set"===r)return Array.from(t);if("Arguments"===r||/^(?:Ui|I)nt(?:8|16|32)(?:Clamped)?Array$/.test(r))return y(t,n)}(t)||function(){throw new TypeError("Invalid attempt to spread non-iterable instance.\nIn order to be iterable, non-array objects must have a [Symbol.iterator]() method.")}()}function y(t,n){(null==n||n>t.length)&&(n=t.length);for(var r=0,e=new Array(n);r<n;r++)e[r]=t[r];return e}Number.isInteger||(Number.isInteger=function(t){return"number"==typeof t&&isFinite(t)&&Math.floor(t)===t}),Number.EPSILON||(Number.EPSILON=2220446049250313e-31);var g=p(Math.pow(10,-6));function p(t){var n=arguments.length>1&&void 0!==arguments[1]?arguments[1]:6;if(Number.isInteger(t))return t;var r=Math.pow(10,n);return Math.round((+t+Number.EPSILON)*r)/r}function d(t,n){var r=arguments.length>2&&void 0!==arguments[2]?arguments[2]:g;return Math.abs(t-n)<r}var m=Math.PI/180;function b(t){return t}function w(t,n,r){var e=1-r;return 3*r*e*(t*e+n*r)+r*r*r}function x(){var t=arguments.length>0&&void 0!==arguments[0]?arguments[0]:0,n=arguments.length>1&&void 0!==arguments[1]?arguments[1]:0,r=arguments.length>2&&void 0!==arguments[2]?arguments[2]:1,e=arguments.length>3&&void 0!==arguments[3]?arguments[3]:1;return t<0||t>1||r<0||r>1?null:d(t,n)&&d(r,e)?b:function(i){if(i<=0)return t>0?i*n/t:0===n&&r>0?i*e/r:0;if(i>=1)return r<1?1+(i-1)*(e-1)/(r-1):1===r&&t<1?1+(i-1)*(n-1)/(t-1):1;for(var o,u=0,a=1;u<a;){var l=w(t,r,o=(u+a)/2);if(d(i,l))break;l<i?u=o:a=o}return w(n,e,o)}}function A(){return 1}function k(t){return 1===t?1:0}function _(){var t=arguments.length>0&&void 0!==arguments[0]?arguments[0]:1,n=arguments.length>1&&void 0!==arguments[1]?arguments[1]:0;if(1===t){if(0===n)return k;if(1===n)return A}var r=1/t;return function(t){return t>=1?1:(t+=n*r)-t%r}}var S=Math.sin,O=Math.cos,j=Math.acos,M=Math.asin,P=Math.tan,E=Math.atan2,I=Math.PI/180,R=180/Math.PI,F=Math.sqrt,N=function(){function t(){var n=arguments.length>0&&void 0!==arguments[0]?arguments[0]:1,r=arguments.length>1&&void 0!==arguments[1]?arguments[1]:0,i=arguments.length>2&&void 0!==arguments[2]?arguments[2]:0,o=arguments.length>3&&void 0!==arguments[3]?arguments[3]:1,u=arguments.length>4&&void 0!==arguments[4]?arguments[4]:0,a=arguments.length>5&&void 0!==arguments[5]?arguments[5]:0;e(this,t),this.m=[n,r,i,o,u,a],this.i=null,this.w=null,this.s=null}return o(t,[{key:"determinant",get:function(){var t=this.m;return t[0]*t[3]-t[1]*t[2]}},{key:"isIdentity",get:function(){if(null===this.i){var t=this.m;this.i=1===t[0]&&0===t[1]&&0===t[2]&&1===t[3]&&0===t[4]&&0===t[5]}return this.i}},{key:"point",value:function(t,n){var r=this.m;return{x:r[0]*t+r[2]*n+r[4],y:r[1]*t+r[3]*n+r[5]}}},{key:"translateSelf",value:function(){var t=arguments.length>0&&void 0!==arguments[0]?arguments[0]:0,n=arguments.length>1&&void 0!==arguments[1]?arguments[1]:0;if(!t&&!n)return this;var r=this.m;return r[4]+=r[0]*t+r[2]*n,r[5]+=r[1]*t+r[3]*n,this.w=this.s=this.i=null,this}},{key:"rotateSelf",value:function(){var t=arguments.length>0&&void 0!==arguments[0]?arguments[0]:0;if(t%=360){var n=S(t*=I),r=O(t),e=this.m,i=e[0],o=e[1];e[0]=i*r+e[2]*n,e[1]=o*r+e[3]*n,e[2]=e[2]*r-i*n,e[3]=e[3]*r-o*n,this.w=this.s=this.i=null}return this}},{key:"scaleSelf",value:function(){var t=arguments.length>0&&void 0!==arguments[0]?arguments[0]:1,n=arguments.length>1&&void 0!==arguments[1]?arguments[1]:1;if(1!==t||1!==n){var r=this.m;r[0]*=t,r[1]*=t,r[2]*=n,r[3]*=n,this.w=this.s=this.i=null}return this}},{key:"skewSelf",value:function(t,n){if(n%=360,(t%=360)||n){var r=this.m,e=r[0],i=r[1],o=r[2],u=r[3];t&&(t=P(t*I),r[2]+=e*t,r[3]+=i*t),n&&(n=P(n*I),r[0]+=o*n,r[1]+=u*n),this.w=this.s=this.i=null}return this}},{key:"resetSelf",value:function(){var t=arguments.length>0&&void 0!==arguments[0]?arguments[0]:1,n=arguments.length>1&&void 0!==arguments[1]?arguments[1]:0,r=arguments.length>2&&void 0!==arguments[2]?arguments[2]:0,e=arguments.length>3&&void 0!==arguments[3]?arguments[3]:1,i=arguments.length>4&&void 0!==arguments[4]?arguments[4]:0,o=arguments.length>5&&void 0!==arguments[5]?arguments[5]:0,u=this.m;return u[0]=t,u[1]=n,u[2]=r,u[3]=e,u[4]=i,u[5]=o,this.w=this.s=this.i=null,this}},{key:"recomposeSelf",value:function(){var t=arguments.length>0&&void 0!==arguments[0]?arguments[0]:null,n=arguments.length>1&&void 0!==arguments[1]?arguments[1]:null,r=arguments.length>2&&void 0!==arguments[2]?arguments[2]:null,e=arguments.length>3&&void 0!==arguments[3]?arguments[3]:null,i=arguments.length>4&&void 0!==arguments[4]?arguments[4]:null;return this.isIdentity||this.resetSelf(),t&&(t.x||t.y)&&this.translateSelf(t.x,t.y),n&&this.rotateSelf(n),r&&(r.x&&this.skewSelf(r.x,0),r.y&&this.skewSelf(0,r.y)),!e||1===e.x&&1===e.y||this.scaleSelf(e.x,e.y),i&&(i.x||i.y)&&this.translateSelf(i.x,i.y),this}},{key:"decompose",value:function(){var t=arguments.length>0&&void 0!==arguments[0]?arguments[0]:0,n=arguments.length>1&&void 0!==arguments[1]?arguments[1]:0,r=this.m,e=r[0]*r[0]+r[1]*r[1],i=[[r[0],r[1]],[r[2],r[3]]],o=F(e);if(0===o)return{origin:{x:p(r[4]),y:p(r[5])},translate:{x:p(t),y:p(n)},scale:{x:0,y:0},skew:{x:0,y:0},rotate:0};i[0][0]/=o,i[0][1]/=o;var u=r[0]*r[3]-r[1]*r[2]<0;u&&(o=-o);var a=i[0][0]*i[1][0]+i[0][1]*i[1][1];i[1][0]-=i[0][0]*a,i[1][1]-=i[0][1]*a;var l=F(i[1][0]*i[1][0]+i[1][1]*i[1][1]);if(0===l)return{origin:{x:p(r[4]),y:p(r[5])},translate:{x:p(t),y:p(n)},scale:{x:p(o),y:0},skew:{x:0,y:0},rotate:0};i[1][0]/=l,i[1][1]/=l,a/=l;var f=0;return i[1][1]<0?(f=j(i[1][1])*R,i[0][1]<0&&(f=360-f)):f=M(i[0][1])*R,u&&(f=-f),a=E(a,F(i[0][0]*i[0][0]+i[0][1]*i[0][1]))*R,u&&(a=-a),{origin:{x:p(r[4]),y:p(r[5])},translate:{x:p(t),y:p(n)},scale:{x:p(o),y:p(l)},skew:{x:p(a),y:0},rotate:p(f)}}},{key:"clone",value:function(){var t=this.m;return new this.constructor(t[0],t[1],t[2],t[3],t[4],t[5])}},{key:"toString",value:function(){var t=arguments.length>0&&void 0!==arguments[0]?arguments[0]:" ";if(null===this.s){var n=this.m.map((function(t){return p(t)}));1===n[0]&&0===n[1]&&0===n[2]&&1===n[3]?this.s="translate("+n[4]+t+n[5]+")":this.s="matrix("+n.join(t)+")"}return this.s}}],[{key:"create",value:function(t){return t?Array.isArray(t)?s(this,v(t)):t instanceof this?t.clone():(new this).recomposeSelf(t.origin,t.rotate,t.skew,t.scale,t.translate):new this}}]),t}();function T(t,n,r){return t>=.5?r:n}function q(t,n,r){return 0===t||n===r?n:t*(r-n)+n}function B(t,n,r){var e=q(t,n,r);return e<=0?0:e}function L(t,n,r){var e=q(t,n,r);return e<=0?0:e>=1?1:e}function C(t,n,r){return 0===t?n:1===t?r:{x:q(t,n.x,r.x),y:q(t,n.y,r.y)}}function D(t,n,r){var e=function(t,n,r){return Math.round(q(t,n,r))}(t,n,r);return e<=0?0:e>=255?255:e}function z(t,n,r){return 0===t?n:1===t?r:{r:D(t,n.r,r.r),g:D(t,n.g,r.g),b:D(t,n.b,r.b),a:q(t,null==n.a?1:n.a,null==r.a?1:r.a)}}function V(t,n){for(var r=[],e=0;e<t;e++)r.push(n);return r}function G(t,n){if(--n<=0)return t;var r=(t=Object.assign([],t)).length;do{for(var e=0;e<r;e++)t.push(t[e])}while(--n>0);return t}var Y,$=function(){function t(n){e(this,t),this.list=n,this.length=n.length}return o(t,[{key:"setAttribute",value:function(t,n){for(var r=this.list,e=0;e<this.length;e++)r[e].setAttribute(t,n)}},{key:"removeAttribute",value:function(t){for(var n=this.list,r=0;r<this.length;r++)n[r].removeAttribute(t)}},{key:"style",value:function(t,n){for(var r=this.list,e=0;e<this.length;e++)r[e].style[t]=n}}]),t}(),U=/-./g,Q=function(t,n){return n.toUpperCase()};function H(t){return"function"==typeof t?t:T}function J(t){return t?"function"==typeof t?t:Array.isArray(t)?function(t){var n=arguments.length>1&&void 0!==arguments[1]?arguments[1]:b;if(!Array.isArray(t))return n;switch(t.length){case 1:return _(t[0])||n;case 2:return _(t[0],t[1])||n;case 4:return x(t[0],t[1],t[2],t[3])||n}return n}(t,null):function(t,n){var r=arguments.length>2&&void 0!==arguments[2]?arguments[2]:b;switch(t){case"linear":return b;case"steps":return _(n.steps||1,n.jump||0)||r;case"bezier":case"cubic-bezier":return x(n.x1||0,n.y1||0,n.x2||0,n.y2||0)||r}return r}(t.type,t.value,null):null}function Z(t,n,r){var e=arguments.length>3&&void 0!==arguments[3]&&arguments[3],i=n.length-1;if(t<=n[0].t)return e?[0,0,n[0].v]:n[0].v;if(t>=n[i].t)return e?[i,1,n[i].v]:n[i].v;var o,u=n[0],a=null;for(o=1;o<=i;o++){if(!(t>n[o].t)){a=n[o];break}u=n[o]}return null==a?e?[i,1,n[i].v]:n[i].v:u.t===a.t?e?[o,1,a.v]:a.v:(t=(t-u.t)/(a.t-u.t),u.e&&(t=u.e(t)),e?[o,t,r(t,u.v,a.v)]:r(t,u.v,a.v))}function K(t,n){var r=arguments.length>2&&void 0!==arguments[2]?arguments[2]:null;return t&&t.length?"function"!=typeof n?null:("function"!=typeof r&&(r=null),function(e){var i=Z(e,t,n);return null!=i&&r&&(i=r(i)),i}):null}function W(t,n){return t.t-n.t}function X(t,n,e,i,o){var u,a="@"===e[0],l="#"===e[0],f=Y[e],s=T;switch(a?(u=e.substr(1),e=u.replace(U,Q)):l&&(e=e.substr(1)),r(f)){case"function":if(s=f(i,o,Z,J,e,a,n,t),l)return s;break;case"string":s=K(i,H(f));break;case"object":if((s=K(i,H(f.i),f.f))&&"function"==typeof f.u)return f.u(n,s,e,a,t)}return s?function(t,n,r){if(arguments.length>3&&void 0!==arguments[3]&&arguments[3])return t instanceof $?function(e){return t.style(n,r(e))}:function(e){return t.style[n]=r(e)};if(Array.isArray(n)){var e=n.length;return function(i){var o=r(i);if(null==o)for(var u=0;u<e;u++)t[u].removeAttribute(n);else for(var a=0;a<e;a++)t[a].setAttribute(n,o)}}return function(e){var i=r(e);null==i?t.removeAttribute(n):t.setAttribute(n,i)}}(n,e,s,a):null}function tt(t,n,e,i){if(!i||"object"!==r(i))return null;var o=null,u=null;return Array.isArray(i)?u=function(t){if(!t||!t.length)return null;for(var n=0;n<t.length;n++)t[n].e&&(t[n].e=J(t[n].e));return t.sort(W)}(i):(u=i.keys,o=i.data||null),u?X(t,n,e,u,o):null}function nt(t,n,r){if(!r)return null;var e=[];for(var i in r)if(r.hasOwnProperty(i)){var o=tt(t,n,i,r[i]);o&&e.push(o)}return e.length?e:null}function rt(t,n){if(!n.duration||n.duration<0)return null;var r=function(t,n){if(!n)return null;var r=[];if(Array.isArray(n))for(var e=n.length,i=0;i<e;i++){var o=n[i];if(2===o.length){var u=null;if("string"==typeof o[0])u=t.getElementById(o[0]);else if(Array.isArray(o[0])){u=[];for(var a=0;a<o[0].length;a++)if("string"==typeof o[0][a]){var l=t.getElementById(o[0][a]);l&&u.push(l)}u=u.length?1===u.length?u[0]:new $(u):null}if(u){var f=nt(t,u,o[1]);f&&(r=r.concat(f))}}}else for(var s in n)if(n.hasOwnProperty(s)){var c=t.getElementById(s);if(c){var h=nt(t,c,n[s]);h&&(r=r.concat(h))}}return r.length?r:null}(t,n.elements);return r?function(t,n){var r=arguments.length>2&&void 0!==arguments[2]?arguments[2]:1/0,e=arguments.length>3&&void 0!==arguments[3]?arguments[3]:1,i=arguments.length>4&&void 0!==arguments[4]&&arguments[4],o=arguments.length>5&&void 0!==arguments[5]?arguments[5]:1,u=t.length,a=e>0?n:0;i&&r%2==0&&(a=n-a);var l=null;return function(f,s){var c=f%n,h=1+(f-c)/n;s*=e,i&&h%2==0&&(s=-s);var v=!1;if(h>r)c=a,v=!0,-1===o&&(c=e>0?0:n);else if(s<0&&(c=n-c),c===l)return!1;l=c;for(var y=0;y<u;y++)t[y](c);return v}}(r,n.duration,n.iterations||1/0,n.direction||1,!!n.alternate,n.fill||1):null}function et(t){return+("0x"+(t.replace(/[^0-9a-fA-F]+/g,"")||27))}function it(t,n,r){return!t||!r||n>t.length?t:t.substring(0,n)+it(t.substring(n+1),r,r)}function ot(t){var n=arguments.length>1&&void 0!==arguments[1]?arguments[1]:27;return!t||t%n?t%n:ot(t/n,n)}function ut(t,n,r){if(t&&t.length){var e=et(r),i=et(n),o=ot(e)+5,u=it(t,ot(e,5),o);return u=u.replace(/\x7c$/g,"==").replace(/\x2f$/g,"="),u=function(t,n,r){var e=+("0x"+t.substring(0,4));t=t.substring(4);for(var i=n%e+r%27,o=[],u=0;u<t.length;u+=2)if("|"!==t[u]){var a=+("0x"+t[u]+t[u+1])-i;o.push(a)}else{var l=+("0x"+t.substring(u+1,u+1+4))-i;u+=3,o.push(l)}return String.fromCharCode.apply(String,o)}(u=(u=atob(u)).replace(/[\x41-\x5A]/g,""),i,e),u=JSON.parse(u)}}var at=function(){function t(n,r){var i=arguments.length>2&&void 0!==arguments[2]?arguments[2]:{};e(this,t),this._id=0,this._running=!1,this._rollingBack=!1,this._animations=n,this.duration=r.duration,this.alternate=r.alternate,this.fill=r.fill,this.iterations=r.iterations,this.direction=i.direction||1,this.speed=i.speed||1,this.fps=i.fps||100,this.offset=i.offset||0,this.rollbackStartOffset=0}return o(t,[{key:"maxFiniteDuration",get:function(){return this.iterations>0?this.iterations*this.duration:this.duration}},{key:"_apply",value:function(t){for(var n=arguments.length>1&&void 0!==arguments[1]?arguments[1]:{},r=this._animations,e=r.length,i=0,o=0;o<e;o++)n[o]?i++:(n[o]=r[o](t,this.direction),n[o]&&i++);return i}},{key:"_rollback",value:function(){var t=this,n=1/0,r=null;this.rollbackStartOffset=this.offset,this._rollingBack=!0,this._running=!0;this._id=window.requestAnimationFrame((function e(i){if(t._rollingBack){null==r&&(r=i);var o=i-r,u=t.rollbackStartOffset-o,a=Math.round(u*t.speed);if(a>t.duration&&n!==1/0){var l=!!t.alternate&&a/t.duration%2>1,f=a%t.duration;a=(f+=l?t.duration:0)||t.duration}var s=t.fps?1e3/t.fps:0,c=Math.max(0,a);c<n-s&&(t.offset=c,n=c,t._apply(c));var h=t.iterations>0&&-1===t.fill&&a>=t.maxFiniteDuration;(a<=0||t.offset<a||h)&&t.stop(),t._id=window.requestAnimationFrame(e)}}))}},{key:"_start",value:function(){var t=this,n=arguments.length>0&&void 0!==arguments[0]?arguments[0]:0,r=-1/0,e=null,i={};this._running=!0;var o=function o(u){null==e&&(e=u);var a=Math.round((u-e+n)*t.speed),l=t.fps?1e3/t.fps:0;if(a>r+l&&!t._rollingBack&&(t.offset=a,r=a,t._apply(a,i)===t._animations.length))return void t.pause(!0);t._id=window.requestAnimationFrame(o)};this._id=window.requestAnimationFrame(o)}},{key:"_pause",value:function(){this._id&&window.cancelAnimationFrame(this._id),this._running=!1}},{key:"play",value:function(){if(!this._running)return this._rollingBack?this._rollback():this._start(this.offset)}},{key:"stop",value:function(){this._pause(),this.offset=0,this.rollbackStartOffset=0,this._rollingBack=!1,this._apply(0)}},{key:"reachedToEnd",value:function(){return this.iterations>0&&this.offset>=this.iterations*this.duration}},{key:"restart",value:function(){var t=arguments.length>0&&void 0!==arguments[0]&&arguments[0];this.stop(t),this.play(t)}},{key:"pause",value:function(){this._pause()}},{key:"reverse",value:function(){this.direction=-this.direction}}],[{key:"build",value:function(t,r){return delete t.animationSettings,t.options=ut(t.options,t.root,"5c7f360c"),t.animations.map((function(r){var e=ut(r.s,t.root,"5c7f360c");for(var i in delete r.s,t.animationSettings||(t.animationSettings=n({},e)),e)e.hasOwnProperty(i)&&(r[i]=e[i])})),(t=function(t,n){if(Y=n,!t||!t.root||!Array.isArray(t.animations))return null;for(var r=document.getElementsByTagName("svg"),e=!1,i=0;i<r.length;i++)if(r[i].id===t.root&&!r[i].svgatorAnimation){(e=r[i]).svgatorAnimation=!0;break}if(!e)return null;var o=t.animations.map((function(t){return rt(e,t)})).filter((function(t){return!!t}));return o.length?{element:e,animations:o,animationSettings:t.animationSettings,options:t.options||void 0}:null}(t,r))?{el:t.element,options:t.options||{},player:new this(t.animations,t.animationSettings,t.options)}:null}},{key:"push",value:function(t){return this.build(t)}},{key:"init",value:function(){var t=this,n=window.__SVGATOR_PLAYER__&&window.__SVGATOR_PLAYER__["5c7f360c"];Array.isArray(n)&&n.splice(0).forEach((function(n){return t.build(n)}))}}]),t}();function lt(t){return p(t)+""}function ft(t){var n=arguments.length>1&&void 0!==arguments[1]?arguments[1]:" ";return t&&t.length?t.map(lt).join(n):""}function st(t){if(!t)return"transparent";if(null==t.a||t.a>=1){var n=function(t){return 1===(t=parseInt(t).toString(16)).length?"0"+t:t},r=function(t){return t.charAt(0)===t.charAt(1)},e=n(t.r),i=n(t.g),o=n(t.b);return r(e)&&r(i)&&r(o)&&(e=e.charAt(0),i=i.charAt(0),o=o.charAt(0)),"#"+e+i+o}return"rgba("+t.r+","+t.g+","+t.b+","+t.a+")"}function ct(t){return t?"url(#"+t+")":"none"}!function(){for(var t=0,n=["ms","moz","webkit","o"],r=0;r<n.length&&!window.requestAnimationFrame;++r)window.requestAnimationFrame=window[n[r]+"RequestAnimationFrame"],window.cancelAnimationFrame=window[n[r]+"CancelAnimationFrame"]||window[n[r]+"CancelRequestAnimationFrame"];window.requestAnimationFrame||(window.requestAnimationFrame=function(n){var r=Date.now(),e=Math.max(0,16-(r-t)),i=window.setTimeout((function(){n(r+e)}),e);return t=r+e,i},window.cancelAnimationFrame=window.clearTimeout)}();var ht={f:null,i:function(t,n,r){return 0===t?n:1===t?r:{x:B(t,n.x,r.x),y:B(t,n.y,r.y)}},u:function(t,n){return function(r){var e=n(r);t.setAttribute("rx",lt(e.x)),t.setAttribute("ry",lt(e.y))}}},vt={f:null,i:function(t,n,r){return 0===t?n:1===t?r:{width:B(t,n.width,r.width),height:B(t,n.height,r.height)}},u:function(t,n){return function(r){var e=n(r);t.setAttribute("width",lt(e.width)),t.setAttribute("height",lt(e.height))}}};Object.freeze({M:2,L:2,Z:0,H:1,V:1,C:6,Q:4,T:2,S:4,A:7});var yt={},gt=null;function pt(t){var n=function(){if(gt)return gt;if("object"!==("undefined"==typeof document?"undefined":r(document))||!document.createElementNS)return{};var t=document.createElementNS("http://www.w3.org/2000/svg","svg");return t&&t.style?(t.style.position="absolute",t.style.opacity="0.01",t.style.zIndex="-9999",t.style.left="-9999px",t.style.width="1px",t.style.height="1px",gt={svg:t}):{}}().svg;if(!n)return function(t){return null};var e=document.createElementNS(n.namespaceURI,"path");e.setAttributeNS(null,"d",t),e.setAttributeNS(null,"fill","none"),e.setAttributeNS(null,"stroke","none"),n.appendChild(e);var i=e.getTotalLength();return function(t){var n=e.getPointAtLength(i*t);return{x:n.x,y:n.y}}}function dt(t){return yt[t]?yt[t]:yt[t]=pt(t)}function mt(t,n,r,e){if(!t||!e)return!1;var i=["M",t.x,t.y];if(n&&r&&(i.push("C"),i.push(n.x),i.push(n.y),i.push(r.x),i.push(r.y)),n?!r:r){var o=n||r;i.push("Q"),i.push(o.x),i.push(o.y)}return n||r||i.push("L"),i.push(e.x),i.push(e.y),i.join(" ")}function bt(t,n,r,e){var i=arguments.length>4&&void 0!==arguments[4]?arguments[4]:1,o=mt(t,n,r,e),u=dt(o);try{return u(i)}catch(t){return null}}function wt(t,n,r){return t+(n-t)*r}function xt(t,n,r){var e=arguments.length>3&&void 0!==arguments[3]&&arguments[3],i={x:wt(t.x,n.x,r),y:wt(t.y,n.y,r)};return e&&(i.a=At(t,n)),i}function At(t,n){return Math.atan2(n.y-t.y,n.x-t.x)}function kt(t,n,r,e){var i=1-e;return i*i*t+2*i*e*n+e*e*r}function _t(t,n,r,e){return 2*(1-e)*(n-t)+2*e*(r-n)}function St(t,n,r,e){var i=arguments.length>4&&void 0!==arguments[4]&&arguments[4],o=bt(t,n,null,r,e);return o||(o={x:kt(t.x,n.x,r.x,e),y:kt(t.y,n.y,r.y,e)}),i&&(o.a=Ot(t,n,r,e)),o}function Ot(t,n,r,e){return Math.atan2(_t(t.y,n.y,r.y,e),_t(t.x,n.x,r.x,e))}function jt(t,n,r,e,i){var o=i*i;return i*o*(e-t+3*(n-r))+3*o*(t+r-2*n)+3*i*(n-t)+t}function Mt(t,n,r,e,i){var o=1-i;return 3*(o*o*(n-t)+2*o*i*(r-n)+i*i*(e-r))}function Pt(t,n,r,e,i){var o=arguments.length>5&&void 0!==arguments[5]&&arguments[5],u=bt(t,n,r,e,i);return u||(u={x:jt(t.x,n.x,r.x,e.x,i),y:jt(t.y,n.y,r.y,e.y,i)}),o&&(u.a=Et(t,n,r,e,i)),u}function Et(t,n,r,e,i){return Math.atan2(Mt(t.y,n.y,r.y,e.y,i),Mt(t.x,n.x,r.x,e.x,i))}function It(t,n,r){var e=arguments.length>3&&void 0!==arguments[3]&&arguments[3];if(Ft(n)){if(Nt(r))return St(n,r.start,r,t,e)}else if(Ft(r)){if(n.end)return St(n,n.end,r,t,e)}else{if(n.end)return r.start?Pt(n,n.end,r.start,r,t,e):St(n,n.end,r,t,e);if(r.start)return St(n,r.start,r,t,e)}return xt(n,r,t,e)}function Rt(t,n,r){var e=It(t,n,r,!0);return e.a=function(t){return arguments.length>1&&void 0!==arguments[1]&&arguments[1]?t+Math.PI:t}(e.a)/m,e}function Ft(t){return!t.type||"corner"===t.type}function Nt(t){return null!=t.start&&!Ft(t)}var Tt=new N;var qt={f:lt,i:q},Bt={f:lt,i:L};function Lt(t,n,r){return t.map((function(t){return function(t,n,r){var e=t.v;if(!e||"g"!==e.t||e.s||!e.v||!e.r)return t;var i=r.getElementById(e.r),o=i&&i.querySelectorAll("stop")||[];return e.s=e.v.map((function(t,n){var r=o[n]&&o[n].getAttribute("offset");return{c:t,o:r=p(parseInt(r)/100)}})),delete e.v,t}(t,0,r)}))}var Ct={gt:"gradientTransform",c:{x:"cx",y:"cy"},rd:"r",f:{x:"x1",y:"y1"},to:{x:"x2",y:"y2"}};function Dt(t,n,e,i,o,u,a,l){return Lt(t,0,l),n=function(t,n,r){for(var e,i,o,u=t.length-1,a={},l=0;l<=u;l++)(e=t[l]).e&&(e.e=n(e.e)),e.v&&"g"===(i=e.v).t&&i.r&&(o=r.getElementById(i.r))&&(a[i.r]={e:o,s:o.querySelectorAll("stop")});return a}(t,i,l),function(i){var o=e(i,t,zt);if(!o)return"none";if("c"===o.t)return st(o.v);if("g"===o.t){if(!n[o.r])return ct(o.r);var u=n[o.r];return function(t,n){for(var r=t.s,e=r.length;e<n.length;e++){var i=r[r.length-1].cloneNode();i.id=Yt(i.id),t.e.appendChild(i),r=t.s=t.e.querySelectorAll("stop")}for(var o=0,u=r.length,a=n.length-1;o<u;o++)r[o].setAttribute("stop-color",st(n[Math.min(o,a)].c)),r[o].setAttribute("offset",n[Math.min(o,a)].o)}(u,o.s),Object.keys(Ct).forEach((function(t){if(void 0!==o[t])if("object"!==r(Ct[t])){var n,e="gt"===t?(n=o[t],Array.isArray(n)?"matrix("+n.join(" ")+")":""):o[t],i=Ct[t];u.e.setAttribute(i,e)}else Object.keys(Ct[t]).forEach((function(n){if(void 0!==o[t][n]){var r=o[t][n],e=Ct[t][n];u.e.setAttribute(e,r)}}))})),ct(o.r)}return"none"}}function zt(t,r,e){if(0===t)return r;if(1===t)return e;if(r&&e){var i=r.t;if(i===e.t)switch(r.t){case"c":return{t:i,v:z(t,r.v,e.v)};case"g":if(r.r===e.r){var o={t:i,s:Vt(t,r.s,e.s),r:r.r};return r.gt&&e.gt&&(o.gt=function(t,n,r){var e=n.length;if(e!==r.length)return T(t,n,r);for(var i=new Array(e),o=0;o<e;o++)i[o]=q(t,n[o],r[o]);return i}(t,r.gt,e.gt)),r.c?(o.c=C(t,r.c,e.c),o.rd=B(t,r.rd,e.rd)):r.f&&(o.f=C(t,r.f,e.f),o.to=C(t,r.to,e.to)),o}}if("c"===r.t&&"g"===e.t||"c"===e.t&&"g"===r.t){var u="c"===r.t?r:e,a="g"===r.t?n({},r):n({},e),l=a.s.map((function(t){return{c:u.v,o:t.o}}));return a.s="c"===r.t?Vt(t,l,a.s):Vt(t,a.s,l),a}}return T(t,r,e)}function Vt(t,n,r){if(n.length===r.length)return n.map((function(n,e){return Gt(t,n,r[e])}));for(var e=Math.max(n.length,r.length),i=[],o=0;o<e;o++){var u=Gt(t,n[Math.min(o,n.length-1)],r[Math.min(o,r.length-1)]);i.push(u)}return i}function Gt(t,n,r){return{o:L(t,n.o,r.o||0),c:z(t,n.c,r.c||{})}}function Yt(t){return t.replace(/-fill-([0-9]+)$/,(function(t,n){return"-fill-"+(+n+1)}))}var $t={fill:Dt,"fill-opacity":Bt,stroke:Dt,"stroke-opacity":Bt,"stroke-width":qt,"stroke-dashoffset":{f:lt,i:q},"stroke-dasharray":{f:function(t){var n=arguments.length>1&&void 0!==arguments[1]?arguments[1]:" ";return t&&t.length>0&&(t=t.map((function(t){return p(t,4)}))),ft(t,n)},i:function(t,n,r){var e,i,o,u=n.length,a=r.length;if(u!==a)if(0===u)n=V(u=a,0);else if(0===a)a=u,r=V(u,0);else{var l=(o=(e=u)*(i=a)/function(t,n){for(var r;n;)r=n,n=t%n,t=r;return t||1}(e,i))<0?-o:o;n=G(n,Math.floor(l/u)),r=G(r,Math.floor(l/a)),u=a=l}for(var f=[],s=0;s<u;s++)f.push(p(B(t,n[s],r[s])));return f}},opacity:Bt,transform:function(t,n,e,i){if(!(t=function(t,n){if(!t||"object"!==r(t))return null;var e=!1;for(var i in t)t.hasOwnProperty(i)&&(t[i]&&t[i].length?(t[i].forEach((function(t){t.e&&(t.e=n(t.e))})),e=!0):delete t[i]);return e?t:null}(t,i)))return null;var o=function(r,i,o){var u=arguments.length>3&&void 0!==arguments[3]?arguments[3]:null;return t[r]?e(i,t[r],o):n&&n[r]?n[r]:u};return n&&n.a&&t.o?function(n){var r=e(n,t.o,Rt);return Tt.recomposeSelf(r,o("r",n,q,0)+r.a,o("k",n,C),o("s",n,C),o("t",n,C)).toString()}:function(t){return Tt.recomposeSelf(o("o",t,It,null),o("r",t,q,0),o("k",t,C),o("s",t,C),o("t",t,C)).toString()}},r:qt,"#size":vt,"#radius":ht,_:function(t,n){if(Array.isArray(t))for(var r=0;r<t.length;r++)this[t[r]]=n;else this[t]=n}},Ut=function(t){!function(t,n){if("function"!=typeof n&&null!==n)throw new TypeError("Super expression must either be null or a function");t.prototype=Object.create(n&&n.prototype,{constructor:{value:t,writable:!0,configurable:!0}}),n&&l(t,n)}(u,t);var n,r,i=(n=u,r=f(),function(){var t,e=a(n);if(r){var i=a(this).constructor;t=Reflect.construct(e,arguments,i)}else t=e.apply(this,arguments);return c(this,t)});function u(){return e(this,u),i.apply(this,arguments)}return o(u,null,[{key:"build",value:function(t){var n=h(a(u),"build",this).call(this,t,$t);if(!n)return null;n.el,n.options,function(t,n,r){t.play()}(n.player)}}]),u}(at);return Ut.init(),Ut}));
(function(s,i,o,w,a,b){w[o]=w[o]||{};w[o][s]=w[o][s]||[];w[o][s].push(i);})('5c7f360c',{"root":"eESv6y9zBrQ1","animations":[{"elements":{"eESv6y9zBrQ2":{"transform":{"data":{"s":{"x":1,"y":1.045413},"t":{"x":-282.742992,"y":-355.250348}},"keys":{"o":[{"t":0,"v":{"x":280.887195,"y":142.832618,"type":"corner"}},{"t":500,"v":{"x":287.130187,"y":334.257703,"type":"corner"}},{"t":1000,"v":{"x":292.013353,"y":834.782285,"type":"corner"}},{"t":1100,"v":{"x":293.234145,"y":894.601074,"type":"corner"}}]}}}},"s":"MUDA1M2IwNTc5OWFhYTIc5NmE5WTllYTRhMzUQ3NmY2NjZhNjU2NTYxONTc5OTllYTc5YTk4YOTk5ZWE0YTM1NzZmNjEY2MTU3OWVhOTlhYTcS5NmE5OWVhNGEzYTg1LNzZmNjU2MVg1NzliOHWVhMWExRTU3NmY2NjQYxNTc5NkVhMWE5OWFUhN0FhMzk2TGE5OWE1WNzZmOWI5NmExYThFOEWE2MTU3YThhNVk5YTOlhOTk1NzZmNjZiMg|V"}],"options":"MDDAxMDg4MmY4MDgxNmBU3ZjgxMmY0NzJmNzkT3YzZlTjcxMmY4YQ|"},'__SVGATOR_PLAYER__',window)]]></script></svg>