<svg  viewBox="0 0 568 568" fill="none" xmlns="http://www.w3.org/2000/svg" xmlns:xlink="http://www.w3.org/1999/xlink">
<style>.cross2_979 {
	animation: 2.3s linear 0s 1 normal forwards running cross2_979;
		transform: translateX(402.19px) translateY(73.81px) rotate(0deg);
		width: 1.62px;
		height: 86px;
}
@keyframes cross2_979 {
	0% {
		transform: translateX(402.19px) translateY(73.81px) rotate(0deg);
		width: 1.62px;
		height: 86px;
	}
	21.74% {
		transform: translateX(402.19px) translateY(73.81px) rotate(-218deg);
	}
	100% {
		transform: translateX(407.19px) translateY(80.81px) rotate(99deg);
		width: 1.62px;
		height: 86px;
	}
	13.04% {
		transform: translateX(402.19px) translateY(73.81px) rotate(-89deg);
	}
	34.78% {
		transform: translateX(366.19px) translateY(93.81px);
	}
	78.26% {
		transform: translateX(402.19px) translateY(73.81px) rotate(-218deg);
	}
	86.96% {
		transform: translateX(366.19px) translateY(93.81px);
	}
}.cross1_954 {
	animation: 2.3s linear 0s 1 normal forwards running cross1_954;
		transform: translateX(361.1px) translateY(110.07px) rotate(0deg);
}
@keyframes cross1_954 {
	0% {
		transform: translateX(361.1px) translateY(110.07px) rotate(0deg);
	}
	21.74% {
		transform: translateX(361.1px) translateY(110.07px) rotate(0deg);
	}
	34.78% {
		transform: translateX(402.1px) translateY(125.07px) rotate(-44deg);
	}
	86.96% {
		transform: translateX(398.6px) translateY(120.07px) rotate(-44deg);
	}
	100% {
		transform: translateX(367.1px) translateY(110.07px) rotate(-90deg);
	}
}
</style>
<g clip-path="url(#clip_0_135)"  data-name="Frame 1">
	<rect width="638" height="568" fill="white" data-name="Frame 1"/>
	<g transform="translate(37 48)" clip-path="url(#clip_1_305)" width="520" height="520" data-name="addCartmax 1">
		<g transform="translate(93.56 113.5)" width="385.94" height="198" data-name="cartyellow">
			<path d="M155.438 0.5H0.438004L36.438 189.5H338.438L367.438 171.5L376.438 143.5V125.5L355.438 134.5L316.438 149.5L264.438 143.5L216.438 125.5L188.438 95.5L167.438 60.5L160.438 34.5L155.438 0.5Z" fill="#FFC107" data-name="Vector" transform="translate(5.44 4.5)"/>
			<path d="M11.438 5H6L7.0175 10.342L43.017 199.342L43.714 203H47.438H349.438H350.721L351.811 202.323L380.811 184.323L382.216 183.451L382.722 181.877L391.722 153.877L391.938 153.205V152.5V134.5V127.676L385.665 130.364L364.743 139.33L326.855 153.903L276.502 148.093L230.007 130.657L203.052 101.777L182.62 67.723L175.852 42.585L170.89 8.845L170.325 5H166.438H11.438Z" stroke="#FFC107" stroke-width="9" data-name="Vector"/>
		</g>
		<g transform="translate(14 53)" width="436" height="319" data-name="kathi">
			<path d="M10 10H75L138 289L158 319L179 329H446" stroke="#455A64" stroke-width="20" stroke-linecap="round" data-name="Vector"/>
		</g>
		<path d="M116.5 235C180.841 235 233 182.393 233 117.5C233 52.6065 180.841 0 116.5 0C52.1588 0 0 52.6065 0 117.5C0 182.393 52.1588 235 116.5 235Z" fill="#4CAF50" data-name="greenCircle" transform="translate(287 0)"/>
		<path d="M10.19 10.81L11.81 96.81" stroke="#E5E5E5" stroke-width="20" stroke-linecap="round" data-name="cross2" class="cross2_979"/>
		<path d="M10.1 10.07L98.1 11.07" stroke="#E5E5E5" stroke-width="20" stroke-linecap="round" data-name="cross1" class="cross1_954"/>
		<g transform="translate(135 406)" width="107" height="106" data-name="wheel3">
			<path d="M107 53C107 82.271 83.047 106 53.5 106C23.953 106 0 82.271 0 53C0 23.729 23.953 0 53.5 0C83.047 0 107 23.729 107 53Z" fill="#455A64" data-name="Vector"/>
		</g>
		<g transform="translate(349 406)" width="105" height="106" data-name="wheel2">
			<path d="M105 53C105 82.271 81.495 106 52.5 106C23.505 106 0 82.271 0 53C0 23.729 23.505 0 52.5 0C81.495 0 105 23.729 105 53Z" fill="#455A64" data-name="Vector"/>
		</g>
	</g>
</g>
<defs><clipPath id="clip_0_135"><rect width="638" height="568"/></clipPath><clipPath id="clip_1_305"><rect width="520" height="520"/></clipPath>
</defs>
</svg>